<svg xmlns="http://www.w3.org/2000/svg" viewBox="0 0 27.58 27.58"><defs><style>.cls-1{fill:#fff;}.cls-2{fill:#2d8e35;}</style></defs><g id="Layer_2"><g id="Layer_1-2"><circle class="cls-1" cx="13.79" cy="13.79" r="13.79"/><path class="cls-2" d="M10.83,16.75a1.49,1.49,0,0,0,.2-.15,6,6,0,0,1,2.31-1.13l2.5-.62a1.37,1.37,0,0,1,.34,0c-.05.12-.06.27-.15.34a8.82,8.82,0,0,1-4.61,2.09,2.51,2.51,0,0,1-.55.06c-.2,0-.29.07-.32.28-.06.52-.15,1.05-.22,1.57,0,.08,0,.16,0,.27l.16-.11a7.25,7.25,0,0,1,2.57-1.5c1.07-.41,2.11-.87,3.17-1.31a.48.48,0,0,1,.2-.07.29.29,0,0,1,.22.08.23.23,0,0,1,0,.23,1.22,1.22,0,0,1-.28.32,10.71,10.71,0,0,1-4.91,2.53c-.34.08-.67.21-1,.32a.24.24,0,0,0-.18.28c0,.34,0,.67,0,1,0,.07,0,.14,0,.25l.19-.16a3.94,3.94,0,0,1,2-1.07l4.7-1.11c.16,0,.37-.15.48.05s-.07.35-.21.48a6.11,6.11,0,0,1-2.74,1.42c-1.1.25-2.2.46-3.3.7-.25.06-.49.15-.73.22s-.33.21-.26.47l.81,3.25c0,.23.11.47.17.7l-.09.05c-.06-.06-.14-.11-.17-.19a13,13,0,0,1-.58-1.58c-.21-.76-.37-1.54-.53-2.32a.82.82,0,0,0-.42-.62,8.18,8.18,0,0,0-.95-.44,9.52,9.52,0,0,1-3.89-2.53A9.08,9.08,0,0,1,4.21,18c-.08-.13-.13-.3,0-.38a.43.43,0,0,1,.36.05c1.21.73,2.4,1.48,3.62,2.2a4.88,4.88,0,0,1,1.51,1.27l.16.17a7.42,7.42,0,0,1,0-.83c.07-.49-.07-.74-.59-.91a4.4,4.4,0,0,1-2.24-1.76A11.73,11.73,0,0,0,4.8,15.55a1.42,1.42,0,0,1-.21-.36,1.14,1.14,0,0,1,.41,0A6.62,6.62,0,0,1,8.88,18c.27.41.56.81.85,1.21a1.79,1.79,0,0,0,.16.19c0-.1,0-.16,0-.23.11-.69.2-1.38.34-2.06,0-.23,0-.32-.21-.4A5.93,5.93,0,0,1,8,15.33a7.84,7.84,0,0,1-1.75-3.18c0-.14-.13-.33.07-.43s.29.12.37.24A18.09,18.09,0,0,0,9.25,15a14.55,14.55,0,0,1,1.06,1.27l.1.12c.06-.15.11-.28.15-.4.19-.53.36-1.07.55-1.6.06-.15,0-.22-.11-.3-.35-.2-.7-.41-1-.64A3.17,3.17,0,0,1,8.78,12c-.24-.61-.48-1.23-.7-1.84a.94.94,0,0,1,0-.37c.13,0,.29,0,.39.08A4.63,4.63,0,0,1,9.6,11.26c.43.71.87,1.42,1.31,2.13a6.54,6.54,0,0,0,.41.51l.85-1.72s0-.06-.05-.07a3.29,3.29,0,0,1-1.59-1.81c-.31-.69-.62-1.38-.92-2.07a.7.7,0,0,1,0-.29c.1,0,.24,0,.3.06a13,13,0,0,1,.95,1,7.24,7.24,0,0,1,1.21,2.17c.07.2.17.4.27.64l.3-.44.72-1.15a.17.17,0,0,0,0-.26,3.32,3.32,0,0,1-.9-1.65c-.22-.81-.45-1.61-.66-2.41a1,1,0,0,1,.05-.33c.1.06.24.09.3.17A7.88,7.88,0,0,1,13.46,9c0,.25.11.49.18.79l1.22-1.53L14.53,8a2.38,2.38,0,0,1-.92-1.48c-.14-.59-.32-1.17-.47-1.77a.86.86,0,0,1,0-.3c.09,0,.21.07.27.14a6.07,6.07,0,0,1,1.13,2.13c.12.43.27.86.42,1.35l1.25-1.34-.2-.19a2.65,2.65,0,0,1-1-1.55c-.14-.57-.28-1.14-.41-1.72a.82.82,0,0,1,.05-.3c.11,0,.25,0,.32.08a3.12,3.12,0,0,1,.84,1.45c.16.53.35,1.06.54,1.59a3.54,3.54,0,0,0,.14.33l.79-.81a2.64,2.64,0,0,1-.47-1.8c0-.51,0-1,0-1.54l.06,0c.07.06.16.1.2.17a3.61,3.61,0,0,1,.49,2.08c0,.26,0,.52,0,.77l.07,0a8.35,8.35,0,0,0,.8-.89,3.17,3.17,0,0,1,1-.95,3.46,3.46,0,0,0,1-.85c0-.05.14,0,.22-.06s.07.18,0,.23c-.44.66-.76,1.43-1.6,1.75a2,2,0,0,0-1,.62,1,1,0,0,1-.09.15l.24,0c.49,0,1-.08,1.49-.1.08,0,.23.08.23.13a.33.33,0,0,1-.14.26,2.68,2.68,0,0,1-1.47.34,1.15,1.15,0,0,1-.26,0c-.65-.19-.92.3-1.26.72H17l2.65-.21c.1,0,.2.08.3.13-.07.08-.12.21-.21.24a14.34,14.34,0,0,1-1.66.5,1.82,1.82,0,0,1-1.4-.23.19.19,0,0,0-.3,0c-.21.25-.42.49-.64.73l.06,0,2.51-.11a.39.39,0,0,1,.19,0c.08,0,.2.09.2.13a.31.31,0,0,1-.14.22,2.78,2.78,0,0,1-.78.27c-.82.1-1.65.16-2.48.21a.5.5,0,0,0-.44.23c-.21.28-.43.56-.68.87h.18a6.49,6.49,0,0,1,2-.22h1.33a1.44,1.44,0,0,1,.32.13c-.08.1-.13.24-.23.29a4.5,4.5,0,0,1-2.19.45l-1.5-.07a.38.38,0,0,0-.4.18c-.27.45-.55.88-.83,1.32l.07,0A5.94,5.94,0,0,1,16,11c.41,0,.83,0,1.24,0a.3.3,0,0,1,.23.13.29.29,0,0,1-.13.24c-.72.36-1.44.74-2.19,1a4,4,0,0,1-2.37.11.31.31,0,0,0-.39.19c-.16.36-.34.7-.5,1a.93.93,0,0,0-.05.21l.78-.35A10.06,10.06,0,0,1,15.33,13c.35-.05.7-.12,1.06-.15a.71.71,0,0,1,.3.1c-.05.1-.07.25-.16.31a7.45,7.45,0,0,1-2.47,1.07,6.34,6.34,0,0,1-2.45.26s-.13,0-.14.07c-.24.68-.48,1.37-.71,2Zm-.06,4.82h.13l3.63-.77A6,6,0,0,0,16.44,20l.37-.27,0-.06-.27.05c-.8.18-1.61.35-2.41.55s-1.61.4-2.41.63A2,2,0,0,0,10.77,21.57ZM9.39,19.36l0-.08c-1-1.44-2-2.89-3.78-3.45,0,0,0,0,0,.05l.12.12a10.25,10.25,0,0,1,1.5,1.65,5.73,5.73,0,0,0,1,1A8.78,8.78,0,0,0,9.39,19.36Zm-4.51-1c.34.88,3.55,2.92,4.49,2.86a2.45,2.45,0,0,0-.89-.77L5,18.38A.29.29,0,0,0,4.88,18.35Zm6.1,1a10.62,10.62,0,0,0,4.56-2,.14.14,0,0,0-.12,0L12.16,18.6A3.37,3.37,0,0,0,11,19.36ZM11.1,17A7,7,0,0,0,15,15.51,7.83,7.83,0,0,0,11.1,17Zm5.24-5.5c-1.11-.17-3.08.26-3.44.74A4.42,4.42,0,0,0,16.34,11.46ZM9.85,16.15l-2.8-2.89C7.35,14.35,9,16.05,9.85,16.15Zm5.71-2.79a7.74,7.74,0,0,0-3.51.87A7.06,7.06,0,0,0,15.56,13.36Zm-5,.07c-.73-.92-1.2-2-2-3A4.1,4.1,0,0,0,10.58,13.43ZM10.35,9c.23,1.1,1.07,2.5,1.58,2.65A7.82,7.82,0,0,0,10.35,9Zm5.8-2.71a7.2,7.2,0,0,0-1.08-2.61C15.33,4.58,15.3,5.58,16.15,6.26Zm-1.52,1.5a5.6,5.6,0,0,0-.9-2.14C13.85,6.4,13.86,7.21,14.63,7.76Zm2.1,2.1a5.92,5.92,0,0,0-2.18.08A4.24,4.24,0,0,0,16.73,9.86ZM12.52,7.22a4.91,4.91,0,0,0,.67,2.07A5.66,5.66,0,0,0,12.52,7.22Zm4.83-2.15a2.84,2.84,0,0,0-.21-1.88A3.53,3.53,0,0,0,17.35,5.07Zm-.06,1.77a1.15,1.15,0,0,0,1.16,0ZM15.78,8.18V8.3l1.27-.1V8.08Zm3.29-2.63V5.44l-.82,0V5.6Zm.68-1.78-.08-.1-.62.48.07.09Z"/><path class="cls-2" d="M11.26,16.6l.2-.15a5.87,5.87,0,0,1,2.31-1.13l2.5-.62a1.37,1.37,0,0,1,.34,0c-.05.11-.06.26-.15.34a8.82,8.82,0,0,1-4.61,2.09,3.43,3.43,0,0,1-.55.06c-.2,0-.29.07-.32.27-.06.53-.15,1.06-.22,1.58,0,.08,0,.16,0,.26a.74.74,0,0,0,.16-.11,7.14,7.14,0,0,1,2.57-1.49c1.07-.41,2.11-.87,3.17-1.31a.49.49,0,0,1,.19-.07.33.33,0,0,1,.23.07.29.29,0,0,1,0,.24,1.22,1.22,0,0,1-.28.32,10.8,10.8,0,0,1-4.91,2.53c-.34.08-.67.21-1,.31a.28.28,0,0,0-.19.29c0,.33,0,.67,0,1,0,.07,0,.14,0,.25l.19-.16a3.94,3.94,0,0,1,2-1.07c1.57-.38,3.13-.75,4.7-1.11.16,0,.37-.15.48,0s-.08.35-.21.47A6,6,0,0,1,15.15,21c-1.1.26-2.2.47-3.3.71-.25.06-.49.15-.73.22s-.33.21-.27.47c.28,1.08.55,2.16.82,3.25.05.23.11.47.17.7l-.09.05a.75.75,0,0,1-.17-.19A15,15,0,0,1,11,24.6c-.21-.77-.36-1.54-.52-2.32a.8.8,0,0,0-.42-.62,8.18,8.18,0,0,0-1-.44,9.52,9.52,0,0,1-3.89-2.53,8,8,0,0,1-.57-.82c-.08-.12-.13-.3,0-.37a.43.43,0,0,1,.36.05c1.21.73,2.4,1.48,3.61,2.2A4.8,4.8,0,0,1,10.16,21s.08.08.16.16a7.28,7.28,0,0,1,0-.82c.07-.49-.07-.74-.59-.91A4.36,4.36,0,0,1,7.5,17.69,11.73,11.73,0,0,0,5.23,15.4,1.42,1.42,0,0,1,5,15a1.45,1.45,0,0,1,.41,0,6.71,6.71,0,0,1,3.88,2.82c.26.41.56.8.85,1.21l.15.19a2,2,0,0,0,.06-.23c.11-.69.2-1.38.34-2.07a.29.29,0,0,0-.21-.39,6,6,0,0,1-2.09-1.37A7.87,7.87,0,0,1,6.66,12c0-.13-.13-.33.07-.42s.29.12.37.24a18.09,18.09,0,0,0,2.58,3.08,14.55,14.55,0,0,1,1.06,1.27.58.58,0,0,1,.1.11c.06-.15.11-.27.15-.39.19-.53.36-1.07.55-1.6.06-.15,0-.22-.11-.3-.35-.2-.7-.41-1-.64a3.22,3.22,0,0,1-1.19-1.51C9,11.22,8.73,10.6,8.51,10a.89.89,0,0,1,0-.36c.13,0,.29,0,.39.08A4.63,4.63,0,0,1,10,11.11c.43.71.87,1.42,1.31,2.12.11.17.24.31.4.52L12.6,12s0-.06,0-.06A3.33,3.33,0,0,1,11,10.14c-.3-.68-.61-1.37-.91-2.06a.7.7,0,0,1,0-.29c.1,0,.24,0,.3.06.33.33.65.66.95,1A7.46,7.46,0,0,1,12.49,11c.07.2.16.39.27.64l.3-.44.72-1.15a.17.17,0,0,0,0-.26,3.32,3.32,0,0,1-.9-1.65c-.22-.81-.45-1.61-.66-2.41a1,1,0,0,1,.05-.33,1.24,1.24,0,0,1,.3.17,8.16,8.16,0,0,1,1.34,3.25c0,.25.11.49.18.79l1.22-1.53L15,7.86A2.34,2.34,0,0,1,14,6.38c-.14-.59-.32-1.18-.47-1.77a.82.82,0,0,1,0-.3c.09.05.21.07.27.14A6.07,6.07,0,0,1,15,6.58c.12.43.27.86.42,1.35l1.25-1.34c-.08-.07-.13-.14-.2-.19a2.72,2.72,0,0,1-1-1.55c-.13-.58-.27-1.15-.4-1.72a.82.82,0,0,1,.05-.3c.11,0,.25,0,.32.08a3,3,0,0,1,.83,1.44c.17.54.36,1.07.55,1.6a2.61,2.61,0,0,0,.14.32l.79-.81a2.56,2.56,0,0,1-.47-1.79c0-.51,0-1,0-1.54l.06,0a.67.67,0,0,1,.2.17,3.61,3.61,0,0,1,.49,2.08c0,.25,0,.51,0,.77l.07,0a7.39,7.39,0,0,0,.8-.88,3.14,3.14,0,0,1,1-.95,3.36,3.36,0,0,0,1-.85c0-.05.15,0,.23-.06s.07.18,0,.22c-.44.67-.76,1.44-1.6,1.76a2,2,0,0,0-1,.62l-.09.15.24,0c.49,0,1-.08,1.49-.1.08,0,.23.08.23.13a.36.36,0,0,1-.14.26,2.77,2.77,0,0,1-1.47.34,1.13,1.13,0,0,1-.26,0c-.66-.19-.92.3-1.26.72a.84.84,0,0,0,.16,0l2.65-.21c.1,0,.2.08.3.13-.07.08-.12.21-.21.24a16.62,16.62,0,0,1-1.66.5,1.82,1.82,0,0,1-1.4-.23.19.19,0,0,0-.3,0l-.64.73.06,0,2.51-.1a.39.39,0,0,1,.19,0c.08,0,.19.09.19.14A.27.27,0,0,1,19,8a2.78,2.78,0,0,1-.78.27c-.82.09-1.65.16-2.48.21a.5.5,0,0,0-.44.23c-.21.28-.43.55-.68.87h.18a6.45,6.45,0,0,1,2-.22h1.33a1.44,1.44,0,0,1,.32.13c-.08.1-.13.23-.24.28a4.33,4.33,0,0,1-2.18.46c-.5,0-1,0-1.5-.08a.38.38,0,0,0-.4.19q-.4.66-.84,1.32l.08,0a5.94,5.94,0,0,1,3-.79c.41,0,.82,0,1.24,0a.27.27,0,0,1,.23.13.31.31,0,0,1-.13.24c-.72.36-1.44.74-2.19,1a4,4,0,0,1-2.37.11.31.31,0,0,0-.39.19c-.16.35-.34.7-.5,1a.81.81,0,0,0,0,.21c.28-.13.53-.25.78-.35a10.06,10.06,0,0,1,2.76-.63c.35-.05.7-.12,1.06-.15a.76.76,0,0,1,.3.1c-.05.1-.07.25-.16.31a7.45,7.45,0,0,1-2.47,1.07,6.36,6.36,0,0,1-2.45.26s-.13,0-.14.07c-.25.68-.48,1.37-.71,2.05Zm-.06,4.82h.13L15,20.64a5.75,5.75,0,0,0,1.91-.76l.37-.27,0-.06L17,19.6c-.81.18-1.61.35-2.41.54s-1.61.41-2.41.64A1.94,1.94,0,0,0,11.2,21.42ZM9.82,19.21l0-.08c-1-1.44-2-2.89-3.78-3.45,0,0,0,0,0,.05l.12.12a10.62,10.62,0,0,1,1.5,1.64,5.48,5.48,0,0,0,1,1A8.78,8.78,0,0,0,9.82,19.21Zm-4.51-1c.34.88,3.54,2.92,4.49,2.86a2.44,2.44,0,0,0-.89-.77L5.4,18.23S5.35,18.21,5.31,18.2Zm6.1,1a10.62,10.62,0,0,0,4.56-2,.14.14,0,0,0-.12,0c-1.08.42-2.17.82-3.26,1.25A3.23,3.23,0,0,0,11.41,19.21Zm.12-2.4a6.93,6.93,0,0,0,3.88-1.45A7.83,7.83,0,0,0,11.53,16.81Zm5.24-5.5c-1.11-.17-3.08.26-3.45.74A4.48,4.48,0,0,0,16.77,11.31ZM10.27,16,7.48,13.11C7.78,14.2,9.4,15.9,10.27,16ZM16,13.21a7.74,7.74,0,0,0-3.51.87A7.06,7.06,0,0,0,16,13.21Zm-5,.07c-.73-.92-1.19-2-1.95-3A4.12,4.12,0,0,0,11,13.28Zm-.22-4.46c.23,1.1,1.07,2.5,1.58,2.65A7.72,7.72,0,0,0,10.78,8.82Zm5.79-2.71A6.87,6.87,0,0,0,15.49,3.5C15.76,4.43,15.73,5.43,16.57,6.11Zm-1.51,1.5a5.6,5.6,0,0,0-.9-2.14C14.28,6.25,14.29,7.06,15.06,7.61Zm2.1,2.1A5.92,5.92,0,0,0,15,9.79,4.24,4.24,0,0,0,17.16,9.71ZM13,7.07a4.91,4.91,0,0,0,.67,2.07A5.66,5.66,0,0,0,13,7.07Zm4.83-2.15A2.84,2.84,0,0,0,17.57,3,3.43,3.43,0,0,0,17.78,4.92Zm-.06,1.77a1.15,1.15,0,0,0,1.16-.05ZM16.21,8v.12l1.27-.1V7.93ZM19.5,5.4V5.29l-.83,0v.12Zm.68-1.78-.08-.1L19.48,4l.06.08Z"/><path class="cls-2" d="M10.93,16.45l.19-.15a6,6,0,0,1,2.31-1.13c.83-.22,1.67-.42,2.5-.62a1.08,1.08,0,0,1,.35,0c-.05.11-.07.26-.16.33A8.72,8.72,0,0,1,11.51,17a3.31,3.31,0,0,1-.54.06c-.21,0-.3.07-.32.27-.07.53-.15,1-.23,1.58a2.24,2.24,0,0,0,0,.26.73.73,0,0,0,.15-.11,7.4,7.4,0,0,1,2.57-1.5c1.07-.4,2.12-.86,3.17-1.3.07,0,.13-.08.2-.07a.31.31,0,0,1,.22.07.26.26,0,0,1,0,.24,1.39,1.39,0,0,1-.27.32,10.89,10.89,0,0,1-4.92,2.53c-.34.08-.67.2-1,.31a.26.26,0,0,0-.18.29c0,.33,0,.67,0,1,0,.07,0,.14,0,.24a.83.83,0,0,0,.19-.15,3.94,3.94,0,0,1,2-1.07q2.36-.57,4.71-1.11c.16,0,.37-.15.48.05s-.08.35-.22.47a6,6,0,0,1-2.74,1.42c-1.09.26-2.2.47-3.3.71-.25.06-.48.15-.73.21a.33.33,0,0,0-.26.47l.81,3.26c.06.23.12.46.17.7l-.09,0a.75.75,0,0,1-.17-.19c-.2-.53-.43-1-.58-1.58-.21-.77-.37-1.55-.53-2.32a.78.78,0,0,0-.42-.62,8.18,8.18,0,0,0-1-.44,9.41,9.41,0,0,1-3.88-2.54,6.63,6.63,0,0,1-.58-.81c-.08-.12-.13-.3,0-.38a.47.47,0,0,1,.36.06c1.21.73,2.4,1.48,3.62,2.2a5,5,0,0,1,1.52,1.27L10,21a7.11,7.11,0,0,1,0-.82.72.72,0,0,0-.59-.91,4.39,4.39,0,0,1-2.25-1.76,11.77,11.77,0,0,0-2.27-2.3,1.21,1.21,0,0,1-.21-.35,1.5,1.5,0,0,1,.42,0A6.71,6.71,0,0,1,9,17.69c.26.41.56.8.84,1.2,0,.06.09.11.16.2,0-.1,0-.17,0-.23.11-.69.21-1.38.34-2.07a.29.29,0,0,0-.21-.39A6,6,0,0,1,8.07,15a7.64,7.64,0,0,1-1.74-3.18c0-.13-.14-.33.06-.42s.29.11.37.24a18.1,18.1,0,0,0,2.58,3.07c.39.39.71.85,1.07,1.27l.1.12c.05-.15.1-.27.15-.39.18-.53.35-1.07.55-1.6,0-.15,0-.22-.12-.3-.35-.2-.69-.41-1-.64a3.26,3.26,0,0,1-1.18-1.51c-.25-.61-.49-1.23-.71-1.85a.89.89,0,0,1,0-.36,1,1,0,0,1,.39.08A4.48,4.48,0,0,1,9.69,11c.44.71.87,1.42,1.31,2.12.11.17.25.31.41.52l.85-1.73s0-.06,0-.06A3.31,3.31,0,0,1,10.62,10C10.31,9.3,10,8.62,9.7,7.93a.93.93,0,0,1,0-.29c.1,0,.24,0,.3.05a13.17,13.17,0,0,1,.95,1,7.24,7.24,0,0,1,1.21,2.17c.08.2.17.39.27.64.12-.18.22-.31.3-.44.24-.38.48-.77.73-1.15a.19.19,0,0,0,0-.27A3.25,3.25,0,0,1,12.52,8l-.66-2.41a1,1,0,0,1,.05-.33c.1.06.24.09.3.17a7.88,7.88,0,0,1,1.34,3.25c0,.24.11.49.19.79L15,8c-.12-.09-.22-.18-.33-.25a2.42,2.42,0,0,1-.92-1.48c-.14-.59-.32-1.18-.46-1.77a.64.64,0,0,1,0-.3c.09,0,.21.06.27.14a5.91,5.91,0,0,1,1.13,2.13c.13.43.27.85.43,1.35l1.25-1.34c-.08-.07-.14-.14-.21-.19a2.73,2.73,0,0,1-1-1.56c-.14-.57-.28-1.14-.4-1.71a.8.8,0,0,1,0-.3c.11,0,.25,0,.33.08A3.07,3.07,0,0,1,16,4.2c.16.54.36,1.07.54,1.6a2.61,2.61,0,0,0,.14.32l.79-.81A2.67,2.67,0,0,1,17,3.52c0-.51,0-1,0-1.54l.07,0a.77.77,0,0,1,.19.17,3.61,3.61,0,0,1,.49,2.08c0,.25,0,.51,0,.77l.07,0a8.26,8.26,0,0,0,.8-.88,3.32,3.32,0,0,1,1-1,3.42,3.42,0,0,0,1-.84s.14,0,.22-.06.07.18,0,.22c-.44.67-.76,1.44-1.6,1.75a2,2,0,0,0-1,.63.93.93,0,0,0-.1.15l.24,0,1.49-.1c.08,0,.23.09.23.14a.34.34,0,0,1-.14.26,2.76,2.76,0,0,1-1.46.34.74.74,0,0,1-.26,0c-.66-.19-.92.31-1.27.73h.16c.89-.07,1.77-.15,2.66-.21.09,0,.19.08.29.13-.07.08-.12.21-.21.24-.55.18-1.09.37-1.66.5a1.8,1.8,0,0,1-1.39-.23.21.21,0,0,0-.31,0c-.2.25-.42.49-.63.74l.05,0,2.52-.1a.36.36,0,0,1,.18,0c.08,0,.2.09.2.14a.32.32,0,0,1-.13.22,3,3,0,0,1-.79.27c-.82.09-1.65.15-2.48.21a.54.54,0,0,0-.44.22c-.2.29-.43.56-.67.88h.17a6.19,6.19,0,0,1,2-.22h1.33a1.27,1.27,0,0,1,.32.13c-.07.1-.13.23-.23.28a4.48,4.48,0,0,1-2.19.46c-.5,0-1,0-1.5-.08a.37.37,0,0,0-.39.19l-.84,1.32.08,0a5.88,5.88,0,0,1,3-.79l1.24-.05c.08,0,.22.08.23.14a.28.28,0,0,1-.13.24c-.72.36-1.44.73-2.18,1a4,4,0,0,1-2.37.11.29.29,0,0,0-.39.19l-.51,1.05a1.65,1.65,0,0,0,0,.21l.79-.36a10.27,10.27,0,0,1,2.75-.62c.35-.06.7-.12,1.06-.15.1,0,.2.06.31.09-.06.11-.08.26-.16.32A7.71,7.71,0,0,1,14.15,14a6.15,6.15,0,0,1-2.45.25s-.13,0-.14.08c-.24.68-.47,1.37-.71,2Zm-.07,4.82a.52.52,0,0,0,.13,0c1.21-.26,2.42-.51,3.63-.78a5.56,5.56,0,0,0,1.91-.77l.38-.26,0-.06-.27.05c-.8.18-1.61.35-2.41.54s-1.61.41-2.41.64A2,2,0,0,0,10.86,21.27ZM9.48,19.06l0-.08c-1-1.44-2-2.89-3.77-3.45v.05l.12.12a9.71,9.71,0,0,1,1.5,1.64,5.86,5.86,0,0,0,1,1A10,10,0,0,0,9.48,19.06Zm-4.5-1c.33.88,3.54,2.92,4.48,2.86a2.36,2.36,0,0,0-.89-.77l-3.5-2.07Zm6.09,1a10.62,10.62,0,0,0,4.56-2,.12.12,0,0,0-.11,0c-1.09.41-2.18.82-3.26,1.25A3.19,3.19,0,0,0,11.07,19.06Zm.12-2.4a7,7,0,0,0,3.89-1.45A7.74,7.74,0,0,0,11.19,16.66Zm5.24-5.51c-1.11-.16-3.07.27-3.44.75A4.42,4.42,0,0,0,16.43,11.15ZM9.94,15.84,7.14,13C7.45,14,9.07,15.75,9.94,15.84Zm5.72-2.78a7.91,7.91,0,0,0-3.52.86A7.11,7.11,0,0,0,15.66,13.06Zm-5,.07c-.73-.92-1.2-2-2-3A4.13,4.13,0,0,0,10.67,13.13Zm-.23-4.46c.23,1.1,1.07,2.5,1.58,2.65A7.72,7.72,0,0,0,10.44,8.67ZM16.24,6a7.2,7.2,0,0,0-1.08-2.61C15.42,4.28,15.4,5.28,16.24,6Zm-1.52,1.5a5.52,5.52,0,0,0-.9-2.14C14,6.1,14,6.9,14.72,7.46Zm2.11,2.1a5.91,5.91,0,0,0-2.18.08A4.24,4.24,0,0,0,16.83,9.56ZM12.61,6.92A4.91,4.91,0,0,0,13.28,9,5.66,5.66,0,0,0,12.61,6.92Zm4.83-2.15a2.76,2.76,0,0,0-.21-1.88A3.63,3.63,0,0,0,17.44,4.77Zm-.05,1.77a1.13,1.13,0,0,0,1.15,0ZM15.87,7.88V8l1.27-.09V7.78Zm3.29-2.63V5.13l-.83,0V5.3Zm.68-1.79-.08-.09-.62.48.07.08Z"/></g></g></svg>