<?xml version="1.0" encoding="utf-8"?>
<!-- Generator: Adobe Illustrator 24.3.0, SVG Export Plug-In . SVG Version: 6.00 Build 0)  -->
<svg version="1.0" id="Layer_1" xmlns="http://www.w3.org/2000/svg" xmlns:xlink="http://www.w3.org/1999/xlink" x="0px" y="0px"
	 viewBox="0 0 27.6 27.6" style="enable-background:new 0 0 27.6 27.6;" xml:space="preserve">
<circle style="fill:#FFFFFF;" cx="13.8" cy="13.8" r="13.8"/>
<path style="fill:#2F8F44;" d="M10.8,16.7c0.1,0,0.1-0.1,0.2-0.1c0.7-0.6,1.5-0.9,2.3-1.1c0.8-0.2,1.7-0.4,2.5-0.6
	c0.1,0,0.2,0,0.3,0c0,0.1-0.1,0.3-0.2,0.3c-1.3,1.1-2.9,1.9-4.6,2.1c-0.2,0-0.4,0.1-0.5,0.1c-0.2,0-0.3,0.1-0.3,0.3
	c-0.1,0.5-0.1,1.1-0.2,1.6c0,0.1,0,0.2,0,0.3c0.1,0,0.1-0.1,0.2-0.1c0.7-0.7,1.6-1.1,2.6-1.5c1.1-0.4,2.1-0.9,3.2-1.3
	c0.1,0,0.1-0.1,0.2-0.1c0.1,0,0.2,0,0.2,0.1c0,0.1,0,0.2,0,0.2c-0.1,0.1-0.2,0.2-0.3,0.3c-1.4,1.3-3.1,2.1-4.9,2.5
	c-0.3,0.1-0.7,0.2-1,0.3c-0.1,0-0.2,0.1-0.2,0.3c0,0.3,0,0.7,0,1c0,0.1,0,0.1,0,0.2c0.1-0.1,0.1-0.1,0.2-0.2c0.5-0.6,1.2-0.9,2-1.1
	c1.6-0.4,3.1-0.7,4.7-1.1c0.2,0,0.4-0.1,0.5,0c0.1,0.2-0.1,0.4-0.2,0.5c-0.8,0.7-1.7,1.2-2.7,1.4c-1.1,0.3-2.2,0.5-3.3,0.7
	c-0.2,0.1-0.5,0.1-0.7,0.2c-0.3,0.1-0.3,0.2-0.3,0.5c0.3,1.1,0.5,2.2,0.8,3.3c0.1,0.2,0.1,0.5,0.2,0.7c0,0-0.1,0-0.1,0.1
	c-0.1-0.1-0.1-0.1-0.2-0.2c-0.2-0.5-0.4-1-0.6-1.6c-0.2-0.8-0.4-1.5-0.5-2.3c-0.1-0.3-0.2-0.5-0.4-0.6c-0.3-0.2-0.6-0.3-0.9-0.4
	c-1.5-0.6-2.8-1.3-3.9-2.5c-0.2-0.2-0.4-0.5-0.6-0.8c-0.1-0.1-0.1-0.3,0-0.4c0.1,0,0.3,0,0.4,0.1c1.2,0.7,2.4,1.5,3.6,2.2
	c0.6,0.3,1.1,0.7,1.5,1.3c0,0,0.1,0.1,0.2,0.2c0-0.3,0-0.6,0-0.8c0.1-0.5-0.1-0.7-0.6-0.9c-0.9-0.3-1.7-0.9-2.2-1.8
	c-0.6-0.9-1.4-1.6-2.3-2.3c-0.1-0.1-0.1-0.2-0.2-0.4c0.1,0,0.3-0.1,0.4,0c1.6,0.5,3,1.4,3.9,2.8c0.3,0.4,0.6,0.8,0.8,1.2
	c0,0.1,0.1,0.1,0.2,0.2c0-0.1,0-0.2,0.1-0.2c0.1-0.7,0.2-1.4,0.3-2.1c0-0.2,0-0.3-0.2-0.4C9.3,16.4,8.6,16,8,15.3
	c-0.9-0.9-1.4-2-1.7-3.2c0-0.1-0.1-0.3,0.1-0.4c0.2-0.1,0.3,0.1,0.4,0.2c0.7,1.1,1.6,2.1,2.6,3.1c0.4,0.4,0.7,0.8,1.1,1.3
	c0,0,0,0.1,0.1,0.1c0.1-0.2,0.1-0.3,0.1-0.4c0.2-0.5,0.4-1.1,0.5-1.6c0.1-0.2,0-0.2-0.1-0.3c-0.3-0.2-0.7-0.4-1-0.6
	C9.4,13.1,9,12.6,8.8,12c-0.2-0.6-0.5-1.2-0.7-1.8c0-0.1,0-0.2,0-0.4c0.1,0,0.3,0,0.4,0.1c0.5,0.4,0.8,0.9,1.1,1.4
	c0.4,0.7,0.9,1.4,1.3,2.1c0.1,0.2,0.2,0.3,0.4,0.5c0.3-0.6,0.6-1.2,0.9-1.7c0,0,0-0.1,0-0.1c-0.8-0.4-1.3-1-1.6-1.8
	c-0.3-0.7-0.6-1.4-0.9-2.1c0-0.1,0-0.2,0-0.3c0.1,0,0.2,0,0.3,0.1c0.3,0.3,0.7,0.7,1,1c0.5,0.6,0.9,1.4,1.2,2.2
	c0.1,0.2,0.2,0.4,0.3,0.6c0.1-0.2,0.2-0.3,0.3-0.4c0.2-0.4,0.5-0.8,0.7-1.1c0.1-0.1,0.1-0.2,0-0.3c-0.5-0.4-0.7-1-0.9-1.6
	c-0.2-0.8-0.4-1.6-0.7-2.4c0-0.1,0-0.2,0-0.3c0.1,0.1,0.2,0.1,0.3,0.2c0.7,1,1.1,2.1,1.3,3.2c0,0.2,0.1,0.5,0.2,0.8
	c0.4-0.5,0.8-1,1.2-1.5c-0.1-0.1-0.2-0.2-0.3-0.3c-0.5-0.4-0.8-0.9-0.9-1.5c-0.1-0.6-0.3-1.2-0.5-1.8c0-0.1,0-0.2,0-0.3
	c0.1,0,0.2,0.1,0.3,0.1c0.5,0.6,0.9,1.3,1.1,2.1c0.1,0.4,0.3,0.9,0.4,1.4c0.4-0.5,0.8-0.9,1.3-1.3c-0.1-0.1-0.1-0.1-0.2-0.2
	c-0.5-0.4-0.8-0.9-1-1.6c-0.1-0.6-0.3-1.1-0.4-1.7c0-0.1,0-0.2,0-0.3C14.8,3,15,3,15,3.1c0.4,0.4,0.7,0.9,0.8,1.4
	C16,5,16.2,5.6,16.4,6.1c0,0.1,0.1,0.2,0.1,0.3c0.3-0.3,0.5-0.5,0.8-0.8c-0.4-0.5-0.5-1.2-0.5-1.8c0-0.5,0-1,0-1.5c0,0,0,0,0.1,0
	c0.1,0.1,0.2,0.1,0.2,0.2c0.4,0.6,0.6,1.3,0.5,2.1c0,0.3,0,0.5,0,0.8c0,0,0,0,0.1,0c0.3-0.3,0.6-0.6,0.8-0.9c0.3-0.4,0.6-0.7,1-1
	c0.4-0.2,0.8-0.5,1-0.8c0,0,0.1,0,0.2-0.1c0,0.1,0.1,0.2,0,0.2c-0.4,0.7-0.8,1.4-1.6,1.8c-0.4,0.1-0.7,0.3-1,0.6c0,0,0,0.1-0.1,0.2
	c0.1,0,0.2,0,0.2,0c0.5,0,1-0.1,1.5-0.1c0.1,0,0.2,0.1,0.2,0.1c0,0.1-0.1,0.2-0.1,0.3c-0.5,0.3-0.9,0.4-1.5,0.3c-0.1,0-0.2,0-0.3,0
	c-0.7-0.2-0.9,0.3-1.3,0.7c0.1,0,0.1,0,0.2,0c0.9-0.1,1.8-0.2,2.7-0.2c0.1,0,0.2,0.1,0.3,0.1c-0.1,0.1-0.1,0.2-0.2,0.2
	c-0.5,0.2-1.1,0.4-1.7,0.5c-0.5,0.1-1,0-1.4-0.2c-0.1-0.1-0.2-0.1-0.3,0c-0.2,0.2-0.4,0.5-0.6,0.7c0,0,0,0,0.1,0
	c0.8,0,1.7-0.1,2.5-0.1c0.1,0,0.1,0,0.2,0c0.1,0,0.2,0.1,0.2,0.1c0,0.1-0.1,0.2-0.1,0.2c-0.3,0.1-0.5,0.2-0.8,0.3
	c-0.8,0.1-1.7,0.2-2.5,0.2c-0.2,0-0.3,0.1-0.4,0.2c-0.2,0.3-0.4,0.6-0.7,0.9c0.1,0,0.1,0,0.2,0c0.6-0.2,1.3-0.2,2-0.2
	c0.4,0,0.9,0,1.3,0c0.1,0,0.2,0.1,0.3,0.1c-0.1,0.1-0.1,0.2-0.2,0.3c-0.7,0.3-1.4,0.5-2.2,0.5c-0.5,0-1,0-1.5-0.1
	c-0.2,0-0.3,0-0.4,0.2c-0.3,0.4-0.6,0.9-0.8,1.3c0.1,0,0.1,0,0.1,0c0.9-0.6,2-0.8,3-0.8c0.4,0,0.8,0,1.2,0c0.1,0,0.2,0.1,0.2,0.1
	c0,0.1-0.1,0.2-0.1,0.2c-0.7,0.4-1.4,0.7-2.2,1c-0.8,0.3-1.6,0.3-2.4,0.1c-0.2,0-0.3,0-0.4,0.2c-0.2,0.4-0.3,0.7-0.5,1.1
	c0,0.1,0,0.1,0,0.2c0.3-0.1,0.5-0.2,0.8-0.4c0.9-0.4,1.8-0.5,2.8-0.6c0.4-0.1,0.7-0.1,1.1-0.1c0.1,0,0.2,0.1,0.3,0.1
	c-0.1,0.1-0.1,0.3-0.2,0.3c-0.8,0.5-1.6,0.9-2.5,1.1c-0.8,0.2-1.6,0.4-2.4,0.3c0,0-0.1,0-0.1,0.1C11.2,15.3,11,16,10.8,16.7
	C10.8,16.7,10.8,16.7,10.8,16.7z M10.8,21.6c0.1,0,0.1,0,0.1,0c1.2-0.3,2.4-0.5,3.6-0.8c0.7-0.1,1.3-0.4,1.9-0.8
	c0.1-0.1,0.3-0.2,0.4-0.3c0,0,0,0,0-0.1c-0.1,0-0.2,0-0.3,0c-0.8,0.2-1.6,0.4-2.4,0.5c-0.8,0.2-1.6,0.4-2.4,0.6
	C11.3,21,11,21.3,10.8,21.6z M9.4,19.4C9.4,19.3,9.4,19.3,9.4,19.4c-0.9-1.5-1.9-3-3.7-3.5c0,0,0,0,0,0.1c0,0,0.1,0.1,0.1,0.1
	c0.6,0.5,1.1,1,1.5,1.6c0.3,0.4,0.6,0.7,1,1C8.6,19,9,19.1,9.4,19.4z M4.9,18.4c0.3,0.9,3.5,2.9,4.5,2.9c-0.2-0.3-0.5-0.6-0.9-0.8
	C7.3,19.8,6.1,19.1,4.9,18.4C5,18.4,4.9,18.4,4.9,18.4z M11,19.4c1.7-0.4,3.2-0.9,4.6-2c0,0-0.1,0-0.1,0c-1.1,0.4-2.2,0.8-3.3,1.2
	C11.7,18.8,11.3,19,11,19.4z M11.1,17c1.4-0.1,2.8-0.5,3.9-1.4C13.6,15.8,12.2,16,11.1,17z M16.3,11.5c-1.1-0.2-3.1,0.3-3.4,0.7
	C14.2,12.5,15.3,12.1,16.3,11.5z M9.8,16.1c-1-1-1.9-1.9-2.8-2.9C7.4,14.3,9,16.1,9.8,16.1z M15.6,13.4c-0.8-0.1-3.1,0.5-3.5,0.9
	C13.3,14.3,14.5,13.9,15.6,13.4z M10.6,13.4c-0.7-0.9-1.2-2-2-3C8.6,11.4,9.8,13.2,10.6,13.4z M10.4,9c0.2,1.1,1.1,2.5,1.6,2.7
	C11.5,10.6,11.1,9.7,10.4,9z M16.1,6.3c-0.1-0.7-0.8-2.4-1.1-2.6C15.3,4.6,15.3,5.6,16.1,6.3z M14.6,7.8c-0.2-0.8-0.6-2-0.9-2.1
	C13.9,6.4,13.9,7.2,14.6,7.8z M16.7,9.9c-0.7-0.1-1.5-0.1-2.2,0.1C15.3,10.1,16,10.1,16.7,9.9z M12.5,7.2c0.1,0.7,0.2,1.5,0.7,2.1
	C13.1,8.6,12.9,7.9,12.5,7.2z M17.4,5.1c0.1-0.7,0-1.6-0.2-1.9C17.1,3.8,17.1,4.5,17.4,5.1z M17.3,6.8C17.6,7,18.2,7,18.5,6.8
	C18,6.8,17.7,6.8,17.3,6.8z M15.8,8.2c0,0,0,0.1,0,0.1c0.4,0,0.8-0.1,1.3-0.1c0,0,0-0.1,0-0.1C16.6,8.1,16.2,8.2,15.8,8.2z
	 M19.1,5.5c0,0,0-0.1,0-0.1c-0.3,0-0.6,0-0.8,0c0,0,0,0.1,0,0.1C18.5,5.6,18.8,5.6,19.1,5.5z M19.7,3.8C19.7,3.7,19.7,3.7,19.7,3.8
	C19.5,3.8,19.3,4,19,4.1c0,0,0,0.1,0.1,0.1C19.3,4.1,19.5,3.9,19.7,3.8z"/>
<path style="fill:#2F8F44;" d="M11.3,16.6c0.1,0,0.1-0.1,0.2-0.1c0.7-0.6,1.5-0.9,2.3-1.1c0.8-0.2,1.7-0.4,2.5-0.6
	c0.1,0,0.2,0,0.3,0c0,0.1-0.1,0.3-0.2,0.3c-1.3,1.1-2.9,1.9-4.6,2.1c-0.2,0-0.4,0.1-0.5,0.1c-0.2,0-0.3,0.1-0.3,0.3
	c-0.1,0.5-0.1,1.1-0.2,1.6c0,0.1,0,0.2,0,0.3c0.1,0,0.1-0.1,0.2-0.1c0.7-0.7,1.6-1.1,2.6-1.5c1.1-0.4,2.1-0.9,3.2-1.3
	c0.1,0,0.1-0.1,0.2-0.1c0.1,0,0.2,0,0.2,0.1c0,0.1,0,0.2,0,0.2c-0.1,0.1-0.2,0.2-0.3,0.3c-1.4,1.3-3.1,2.1-4.9,2.5
	c-0.3,0.1-0.7,0.2-1,0.3c-0.1,0-0.2,0.1-0.2,0.3c0,0.3,0,0.7,0,1c0,0.1,0,0.1,0,0.2c0.1-0.1,0.1-0.1,0.2-0.2c0.5-0.6,1.2-0.9,2-1.1
	c1.6-0.4,3.1-0.7,4.7-1.1c0.2,0,0.4-0.1,0.5,0c0.1,0.2-0.1,0.4-0.2,0.5c-0.8,0.7-1.7,1.2-2.7,1.4c-1.1,0.3-2.2,0.5-3.3,0.7
	c-0.2,0.1-0.5,0.1-0.7,0.2c-0.3,0.1-0.3,0.2-0.3,0.5c0.3,1.1,0.5,2.2,0.8,3.3c0.1,0.2,0.1,0.5,0.2,0.7c0,0-0.1,0-0.1,0.1
	c-0.1-0.1-0.1-0.1-0.2-0.2c-0.2-0.5-0.4-1-0.6-1.6c-0.2-0.8-0.4-1.5-0.5-2.3c-0.1-0.3-0.2-0.5-0.4-0.6c-0.3-0.2-0.6-0.3-0.9-0.4
	c-1.5-0.6-2.8-1.3-3.9-2.5c-0.2-0.2-0.4-0.5-0.6-0.8c-0.1-0.1-0.1-0.3,0-0.4c0.1,0,0.3,0,0.4,0.1c1.2,0.7,2.4,1.5,3.6,2.2
	c0.6,0.3,1.1,0.7,1.5,1.3c0,0,0.1,0.1,0.2,0.2c0-0.3,0-0.6,0-0.8c0.1-0.5-0.1-0.7-0.6-0.9c-0.9-0.3-1.7-0.9-2.2-1.8
	c-0.6-0.9-1.4-1.6-2.3-2.3C5.1,15.3,5.1,15.2,5,15c0.1,0,0.3-0.1,0.4,0c1.6,0.5,3,1.4,3.9,2.8c0.3,0.4,0.6,0.8,0.8,1.2
	c0,0.1,0.1,0.1,0.2,0.2c0-0.1,0-0.2,0.1-0.2c0.1-0.7,0.2-1.4,0.3-2.1c0-0.2,0-0.3-0.2-0.4c-0.8-0.3-1.5-0.7-2.1-1.4
	c-0.9-0.9-1.4-2-1.7-3.2c0-0.1-0.1-0.3,0.1-0.4C7,11.5,7,11.7,7.1,11.8c0.7,1.1,1.6,2.1,2.6,3.1c0.4,0.4,0.7,0.8,1.1,1.3
	c0,0,0,0.1,0.1,0.1c0.1-0.2,0.1-0.3,0.1-0.4c0.2-0.5,0.4-1.1,0.5-1.6c0.1-0.2,0-0.2-0.1-0.3c-0.3-0.2-0.7-0.4-1-0.6
	c-0.6-0.4-0.9-0.9-1.2-1.5C9,11.2,8.7,10.6,8.5,10c0-0.1,0-0.2,0-0.4c0.1,0,0.3,0,0.4,0.1c0.5,0.4,0.8,0.9,1.1,1.4
	c0.4,0.7,0.9,1.4,1.3,2.1c0.1,0.2,0.2,0.3,0.4,0.5c0.3-0.6,0.6-1.2,0.9-1.7c0,0,0-0.1,0-0.1c-0.8-0.4-1.3-1-1.6-1.8
	c-0.3-0.7-0.6-1.4-0.9-2.1c0-0.1,0-0.2,0-0.3c0.1,0,0.2,0,0.3,0.1c0.3,0.3,0.7,0.7,1,1c0.5,0.6,0.9,1.4,1.2,2.2
	c0.1,0.2,0.2,0.4,0.3,0.6c0.1-0.2,0.2-0.3,0.3-0.4c0.2-0.4,0.5-0.8,0.7-1.1c0.1-0.1,0.1-0.2,0-0.3c-0.5-0.4-0.7-1-0.9-1.6
	c-0.2-0.8-0.4-1.6-0.7-2.4c0-0.1,0-0.2,0-0.3c0.1,0.1,0.2,0.1,0.3,0.2c0.7,1,1.1,2.1,1.3,3.2c0,0.2,0.1,0.5,0.2,0.8
	c0.4-0.5,0.8-1,1.2-1.5C15.2,8,15.1,7.9,15,7.9C14.5,7.5,14.2,7,14,6.4c-0.1-0.6-0.3-1.2-0.5-1.8c0-0.1,0-0.2,0-0.3
	c0.1,0,0.2,0.1,0.3,0.1c0.5,0.6,0.9,1.3,1.1,2.1c0.1,0.4,0.3,0.9,0.4,1.4c0.4-0.5,0.8-0.9,1.3-1.3c-0.1-0.1-0.1-0.1-0.2-0.2
	c-0.5-0.4-0.8-0.9-1-1.6c-0.1-0.6-0.3-1.1-0.4-1.7c0-0.1,0-0.2,0-0.3c0.1,0,0.3,0,0.3,0.1c0.4,0.4,0.7,0.9,0.8,1.4
	c0.2,0.5,0.4,1.1,0.5,1.6c0,0.1,0.1,0.2,0.1,0.3c0.3-0.3,0.5-0.5,0.8-0.8c-0.4-0.5-0.5-1.2-0.5-1.8c0-0.5,0-1,0-1.5c0,0,0,0,0.1,0
	c0.1,0.1,0.2,0.1,0.2,0.2c0.4,0.6,0.6,1.3,0.5,2.1c0,0.3,0,0.5,0,0.8c0,0,0,0,0.1,0c0.3-0.3,0.6-0.6,0.8-0.9c0.3-0.4,0.6-0.7,1-1
	c0.4-0.2,0.8-0.5,1-0.8c0,0,0.1,0,0.2-0.1c0,0.1,0.1,0.2,0,0.2c-0.4,0.7-0.8,1.4-1.6,1.8c-0.4,0.1-0.7,0.3-1,0.6c0,0,0,0.1-0.1,0.2
	c0.1,0,0.2,0,0.2,0c0.5,0,1-0.1,1.5-0.1c0.1,0,0.2,0.1,0.2,0.1c0,0.1-0.1,0.2-0.1,0.3c-0.5,0.3-0.9,0.4-1.5,0.3c-0.1,0-0.2,0-0.3,0
	c-0.7-0.2-0.9,0.3-1.3,0.7c0.1,0,0.1,0,0.2,0c0.9-0.1,1.8-0.2,2.7-0.2c0.1,0,0.2,0.1,0.3,0.1c-0.1,0.1-0.1,0.2-0.2,0.2
	c-0.5,0.2-1.1,0.4-1.7,0.5c-0.5,0.1-1,0-1.4-0.2c-0.1-0.1-0.2-0.1-0.3,0c-0.2,0.2-0.4,0.5-0.6,0.7c0,0,0,0,0.1,0
	c0.8,0,1.7-0.1,2.5-0.1c0.1,0,0.1,0,0.2,0c0.1,0,0.2,0.1,0.2,0.1C19.1,7.8,19.1,8,19,8c-0.3,0.1-0.5,0.2-0.8,0.3
	c-0.8,0.1-1.7,0.2-2.5,0.2c-0.2,0-0.3,0.1-0.4,0.2c-0.2,0.3-0.4,0.6-0.7,0.9c0.1,0,0.1,0,0.2,0c0.6-0.2,1.3-0.2,2-0.2
	c0.4,0,0.9,0,1.3,0c0.1,0,0.2,0.1,0.3,0.1c-0.1,0.1-0.1,0.2-0.2,0.3c-0.7,0.3-1.4,0.5-2.2,0.5c-0.5,0-1,0-1.5-0.1
	c-0.2,0-0.3,0-0.4,0.2c-0.3,0.4-0.6,0.9-0.8,1.3c0.1,0,0.1,0,0.1,0c0.9-0.6,2-0.8,3-0.8c0.4,0,0.8,0,1.2,0c0.1,0,0.2,0.1,0.2,0.1
	c0,0.1-0.1,0.2-0.1,0.2c-0.7,0.4-1.4,0.7-2.2,1c-0.8,0.3-1.6,0.3-2.4,0.1c-0.2,0-0.3,0-0.4,0.2c-0.2,0.4-0.3,0.7-0.5,1.1
	c0,0.1,0,0.1,0,0.2c0.3-0.1,0.5-0.2,0.8-0.4c0.9-0.4,1.8-0.5,2.8-0.6c0.4-0.1,0.7-0.1,1.1-0.1c0.1,0,0.2,0.1,0.3,0.1
	C17.1,12.9,17,13,17,13.1c-0.8,0.5-1.6,0.9-2.5,1.1c-0.8,0.2-1.6,0.4-2.4,0.3c0,0-0.1,0-0.1,0.1C11.7,15.2,11.4,15.9,11.3,16.6
	C11.2,16.6,11.2,16.6,11.3,16.6z M11.2,21.4c0.1,0,0.1,0,0.1,0c1.2-0.3,2.4-0.5,3.6-0.8c0.7-0.1,1.3-0.4,1.9-0.8
	c0.1-0.1,0.3-0.2,0.4-0.3c0,0,0,0,0-0.1c-0.1,0-0.2,0-0.3,0c-0.8,0.2-1.6,0.4-2.4,0.5c-0.8,0.2-1.6,0.4-2.4,0.6
	C11.8,20.9,11.5,21.1,11.2,21.4z M9.8,19.2C9.8,19.2,9.9,19.2,9.8,19.2c-0.9-1.5-1.9-3-3.7-3.5c0,0,0,0,0,0.1c0,0,0.1,0.1,0.1,0.1
	c0.6,0.5,1.1,1,1.5,1.6c0.3,0.4,0.6,0.7,1,1C9.1,18.8,9.5,19,9.8,19.2z M5.3,18.2c0.3,0.9,3.5,2.9,4.5,2.9c-0.2-0.3-0.5-0.6-0.9-0.8
	C7.7,19.6,6.6,18.9,5.3,18.2C5.4,18.2,5.4,18.2,5.3,18.2z M11.4,19.2c1.7-0.4,3.2-0.9,4.6-2c0,0-0.1,0-0.1,0
	c-1.1,0.4-2.2,0.8-3.3,1.2C12.2,18.6,11.7,18.9,11.4,19.2z M11.5,16.8c1.4-0.1,2.8-0.5,3.9-1.4C14,15.6,12.7,15.9,11.5,16.8z
	 M16.8,11.3c-1.1-0.2-3.1,0.3-3.4,0.7C14.6,12.3,15.7,12,16.8,11.3z M10.3,16c-1-1-1.9-1.9-2.8-2.9C7.8,14.2,9.4,15.9,10.3,16z
	 M16,13.2c-0.8-0.1-3.1,0.5-3.5,0.9C13.8,14.1,14.9,13.8,16,13.2z M11,13.3c-0.7-0.9-1.2-2-2-3C9.1,11.3,10.2,13.1,11,13.3z
	 M10.8,8.8c0.2,1.1,1.1,2.5,1.6,2.7C12,10.5,11.5,9.6,10.8,8.8z M16.6,6.1c-0.1-0.7-0.8-2.4-1.1-2.6C15.8,4.4,15.7,5.4,16.6,6.1z
	 M15.1,7.6c-0.2-0.8-0.6-2-0.9-2.1C14.3,6.2,14.3,7.1,15.1,7.6z M17.2,9.7c-0.7-0.1-1.5-0.1-2.2,0.1C15.7,9.9,16.4,9.9,17.2,9.7z
	 M12.9,7.1c0.1,0.7,0.2,1.5,0.7,2.1C13.5,8.4,13.3,7.7,12.9,7.1z M17.8,4.9c0.1-0.7,0-1.6-0.2-1.9C17.5,3.7,17.5,4.3,17.8,4.9z
	 M17.7,6.7c0.3,0.2,0.9,0.2,1.2-0.1C18.5,6.7,18.1,6.7,17.7,6.7z M16.2,8c0,0,0,0.1,0,0.1c0.4,0,0.8-0.1,1.3-0.1c0,0,0-0.1,0-0.1
	C17.1,8,16.6,8,16.2,8z M19.5,5.4c0,0,0-0.1,0-0.1c-0.3,0-0.6,0-0.8,0c0,0,0,0.1,0,0.1C18.9,5.4,19.2,5.4,19.5,5.4z M20.2,3.6
	C20.2,3.6,20.1,3.5,20.2,3.6c-0.3,0.1-0.5,0.2-0.7,0.4c0,0,0,0.1,0.1,0.1C19.8,3.9,20,3.8,20.2,3.6z"/>
<path style="fill:#2F8F44;" d="M10.9,16.4c0.1,0,0.1-0.1,0.2-0.1c0.7-0.6,1.5-0.9,2.3-1.1c0.8-0.2,1.7-0.4,2.5-0.6
	c0.1,0,0.2,0,0.3,0c0,0.1-0.1,0.3-0.2,0.3c-1.3,1.1-2.9,1.9-4.6,2.1c-0.2,0-0.4,0.1-0.5,0.1c-0.2,0-0.3,0.1-0.3,0.3
	c-0.1,0.5-0.1,1.1-0.2,1.6c0,0.1,0,0.2,0,0.3c0.1,0,0.1-0.1,0.2-0.1c0.7-0.7,1.6-1.1,2.6-1.5c1.1-0.4,2.1-0.9,3.2-1.3
	c0.1,0,0.1-0.1,0.2-0.1c0.1,0,0.2,0,0.2,0.1c0,0.1,0,0.2,0,0.2c-0.1,0.1-0.2,0.2-0.3,0.3c-1.4,1.3-3.1,2.1-4.9,2.5
	c-0.3,0.1-0.7,0.2-1,0.3c-0.1,0-0.2,0.1-0.2,0.3c0,0.3,0,0.7,0,1c0,0.1,0,0.1,0,0.2c0.1-0.1,0.1-0.1,0.2-0.2c0.5-0.6,1.2-0.9,2-1.1
	c1.6-0.4,3.1-0.7,4.7-1.1c0.2,0,0.4-0.1,0.5,0c0.1,0.2-0.1,0.4-0.2,0.5c-0.8,0.7-1.7,1.2-2.7,1.4c-1.1,0.3-2.2,0.5-3.3,0.7
	c-0.2,0.1-0.5,0.1-0.7,0.2c-0.3,0.1-0.3,0.2-0.3,0.5c0.3,1.1,0.5,2.2,0.8,3.3c0.1,0.2,0.1,0.5,0.2,0.7c0,0-0.1,0-0.1,0.1
	c-0.1-0.1-0.1-0.1-0.2-0.2c-0.2-0.5-0.4-1-0.6-1.6c-0.2-0.8-0.4-1.5-0.5-2.3c-0.1-0.3-0.2-0.5-0.4-0.6c-0.3-0.2-0.6-0.3-0.9-0.4
	c-1.5-0.6-2.8-1.3-3.9-2.5c-0.2-0.2-0.4-0.5-0.6-0.8c-0.1-0.1-0.1-0.3,0-0.4c0.1,0,0.3,0,0.4,0.1c1.2,0.7,2.4,1.5,3.6,2.2
	c0.6,0.3,1.1,0.7,1.5,1.3c0,0,0.1,0.1,0.2,0.2c0-0.3,0-0.6,0-0.8c0.1-0.5-0.1-0.7-0.6-0.9c-0.9-0.3-1.7-0.9-2.2-1.8
	c-0.6-0.9-1.4-1.6-2.3-2.3c-0.1-0.1-0.1-0.2-0.2-0.4c0.1,0,0.3-0.1,0.4,0c1.6,0.5,3,1.4,3.9,2.8c0.3,0.4,0.6,0.8,0.8,1.2
	c0,0.1,0.1,0.1,0.2,0.2c0-0.1,0-0.2,0.1-0.2c0.1-0.7,0.2-1.4,0.3-2.1c0-0.2,0-0.3-0.2-0.4c-0.8-0.3-1.5-0.7-2.1-1.4
	c-0.9-0.9-1.4-2-1.7-3.2c0-0.1-0.1-0.3,0.1-0.4c0.2-0.1,0.3,0.1,0.4,0.2c0.7,1.1,1.6,2.1,2.6,3.1c0.4,0.4,0.7,0.8,1.1,1.3
	c0,0,0,0.1,0.1,0.1c0.1-0.2,0.1-0.3,0.1-0.4c0.2-0.5,0.4-1.1,0.5-1.6c0.1-0.2,0-0.2-0.1-0.3c-0.3-0.2-0.7-0.4-1-0.6
	c-0.6-0.4-0.9-0.9-1.2-1.5c-0.2-0.6-0.5-1.2-0.7-1.8c0-0.1,0-0.2,0-0.4c0.1,0,0.3,0,0.4,0.1c0.5,0.4,0.8,0.9,1.1,1.4
	c0.4,0.7,0.9,1.4,1.3,2.1c0.1,0.2,0.2,0.3,0.4,0.5c0.3-0.6,0.6-1.2,0.9-1.7c0,0,0-0.1,0-0.1c-0.8-0.4-1.3-1-1.6-1.8
	C10.3,9.3,10,8.6,9.7,7.9c0-0.1,0-0.2,0-0.3c0.1,0,0.2,0,0.3,0.1c0.3,0.3,0.7,0.7,1,1c0.5,0.6,0.9,1.4,1.2,2.2
	c0.1,0.2,0.2,0.4,0.3,0.6c0.1-0.2,0.2-0.3,0.3-0.4c0.2-0.4,0.5-0.8,0.7-1.1c0.1-0.1,0.1-0.2,0-0.3c-0.5-0.4-0.7-1-0.9-1.6
	c-0.2-0.8-0.4-1.6-0.7-2.4c0-0.1,0-0.2,0-0.3c0.1,0.1,0.2,0.1,0.3,0.2c0.7,1,1.1,2.1,1.3,3.2c0,0.2,0.1,0.5,0.2,0.8
	C14.2,9,14.6,8.5,15,8c-0.1-0.1-0.2-0.2-0.3-0.3c-0.5-0.4-0.8-0.9-0.9-1.5c-0.1-0.6-0.3-1.2-0.5-1.8c0-0.1,0-0.2,0-0.3
	c0.1,0,0.2,0.1,0.3,0.1c0.5,0.6,0.9,1.3,1.1,2.1c0.1,0.4,0.3,0.9,0.4,1.4c0.4-0.5,0.8-0.9,1.3-1.3c-0.1-0.1-0.1-0.1-0.2-0.2
	c-0.5-0.4-0.8-0.9-1-1.6C15,4.1,14.9,3.6,14.8,3c0-0.1,0-0.2,0-0.3c0.1,0,0.3,0,0.3,0.1c0.4,0.4,0.7,0.9,0.8,1.4
	c0.2,0.5,0.4,1.1,0.5,1.6c0,0.1,0.1,0.2,0.1,0.3c0.3-0.3,0.5-0.5,0.8-0.8C17,4.8,17,4.2,17,3.5c0-0.5,0-1,0-1.5c0,0,0,0,0.1,0
	C17.1,2,17.2,2,17.2,2.1c0.4,0.6,0.6,1.3,0.5,2.1c0,0.3,0,0.5,0,0.8c0,0,0,0,0.1,0c0.3-0.3,0.6-0.6,0.8-0.9c0.3-0.4,0.6-0.7,1-1
	c0.4-0.2,0.8-0.5,1-0.8c0,0,0.1,0,0.2-0.1c0,0.1,0.1,0.2,0,0.2c-0.4,0.7-0.8,1.4-1.6,1.8c-0.4,0.1-0.7,0.3-1,0.6c0,0,0,0.1-0.1,0.2
	c0.1,0,0.2,0,0.2,0c0.5,0,1-0.1,1.5-0.1c0.1,0,0.2,0.1,0.2,0.1c0,0.1-0.1,0.2-0.1,0.3c-0.5,0.3-0.9,0.4-1.5,0.3c-0.1,0-0.2,0-0.3,0
	c-0.7-0.2-0.9,0.3-1.3,0.7c0.1,0,0.1,0,0.2,0c0.9-0.1,1.8-0.2,2.7-0.2c0.1,0,0.2,0.1,0.3,0.1c-0.1,0.1-0.1,0.2-0.2,0.2
	c-0.5,0.2-1.1,0.4-1.7,0.5c-0.5,0.1-1,0-1.4-0.2c-0.1-0.1-0.2-0.1-0.3,0c-0.2,0.2-0.4,0.5-0.6,0.7c0,0,0,0,0.1,0
	c0.8,0,1.7-0.1,2.5-0.1c0.1,0,0.1,0,0.2,0c0.1,0,0.2,0.1,0.2,0.1c0,0.1-0.1,0.2-0.1,0.2c-0.3,0.1-0.5,0.2-0.8,0.3
	c-0.8,0.1-1.7,0.2-2.5,0.2c-0.2,0-0.3,0.1-0.4,0.2c-0.2,0.3-0.4,0.6-0.7,0.9c0.1,0,0.1,0,0.2,0c0.6-0.2,1.3-0.2,2-0.2
	c0.4,0,0.9,0,1.3,0c0.1,0,0.2,0.1,0.3,0.1c-0.1,0.1-0.1,0.2-0.2,0.3c-0.7,0.3-1.4,0.5-2.2,0.5c-0.5,0-1,0-1.5-0.1
	c-0.2,0-0.3,0-0.4,0.2c-0.3,0.4-0.6,0.9-0.8,1.3c0.1,0,0.1,0,0.1,0c0.9-0.6,2-0.8,3-0.8c0.4,0,0.8,0,1.2,0c0.1,0,0.2,0.1,0.2,0.1
	c0,0.1-0.1,0.2-0.1,0.2c-0.7,0.4-1.4,0.7-2.2,1c-0.8,0.3-1.6,0.3-2.4,0.1c-0.2,0-0.3,0-0.4,0.2c-0.2,0.4-0.3,0.7-0.5,1.1
	c0,0.1,0,0.1,0,0.2c0.3-0.1,0.5-0.2,0.8-0.4c0.9-0.4,1.8-0.5,2.8-0.6c0.4-0.1,0.7-0.1,1.1-0.1c0.1,0,0.2,0.1,0.3,0.1
	c-0.1,0.1-0.1,0.3-0.2,0.3c-0.8,0.5-1.6,0.9-2.5,1.1c-0.8,0.2-1.6,0.4-2.4,0.3c0,0-0.1,0-0.1,0.1C11.3,15,11.1,15.7,10.9,16.4
	C10.9,16.4,10.9,16.4,10.9,16.4z M10.9,21.3c0.1,0,0.1,0,0.1,0c1.2-0.3,2.4-0.5,3.6-0.8c0.7-0.1,1.3-0.4,1.9-0.8
	c0.1-0.1,0.3-0.2,0.4-0.3c0,0,0,0,0-0.1c-0.1,0-0.2,0-0.3,0c-0.8,0.2-1.6,0.4-2.4,0.5c-0.8,0.2-1.6,0.4-2.4,0.6
	C11.4,20.7,11.1,21,10.9,21.3z M9.5,19.1C9.5,19,9.5,19,9.5,19.1c-0.9-1.5-1.9-3-3.7-3.5c0,0,0,0,0,0.1c0,0,0.1,0.1,0.1,0.1
	c0.6,0.5,1.1,1,1.5,1.6c0.3,0.4,0.6,0.7,1,1C8.7,18.6,9.1,18.8,9.5,19.1z M5,18c0.3,0.9,3.5,2.9,4.5,2.9c-0.2-0.3-0.5-0.6-0.9-0.8
	C7.4,19.4,6.2,18.8,5,18C5,18.1,5,18.1,5,18z M11.1,19.1c1.7-0.4,3.2-0.9,4.6-2c0,0-0.1,0-0.1,0c-1.1,0.4-2.2,0.8-3.3,1.2
	C11.8,18.5,11.4,18.7,11.1,19.1z M11.2,16.7c1.4-0.1,2.8-0.5,3.9-1.4C13.7,15.4,12.3,15.7,11.2,16.7z M16.4,11.2
	c-1.1-0.2-3.1,0.3-3.4,0.7C14.3,12.2,15.4,11.8,16.4,11.2z M9.9,15.8c-1-1-1.9-1.9-2.8-2.9C7.4,14,9.1,15.8,9.9,15.8z M15.7,13.1
	c-0.8-0.1-3.1,0.5-3.5,0.9C13.4,14,14.6,13.6,15.7,13.1z M10.7,13.1c-0.7-0.9-1.2-2-2-3C8.7,11.1,9.9,12.9,10.7,13.1z M10.4,8.7
	c0.2,1.1,1.1,2.5,1.6,2.7C11.6,10.3,11.2,9.4,10.4,8.7z M16.2,6c-0.1-0.7-0.8-2.4-1.1-2.6C15.4,4.3,15.4,5.3,16.2,6z M14.7,7.5
	c-0.2-0.8-0.6-2-0.9-2.1C13.9,6.1,14,6.9,14.7,7.5z M16.8,9.6c-0.7-0.1-1.5-0.1-2.2,0.1C15.4,9.8,16.1,9.8,16.8,9.6z M12.6,6.9
	c0.1,0.7,0.2,1.5,0.7,2.1C13.2,8.3,13,7.6,12.6,6.9z M17.4,4.8c0.1-0.7,0-1.6-0.2-1.9C17.2,3.5,17.2,4.2,17.4,4.8z M17.4,6.5
	c0.3,0.2,0.9,0.2,1.2-0.1C18.1,6.5,17.8,6.5,17.4,6.5z M15.9,7.9c0,0,0,0.1,0,0.1c0.4,0,0.8-0.1,1.3-0.1c0,0,0-0.1,0-0.1
	C16.7,7.8,16.3,7.8,15.9,7.9z M19.2,5.2c0,0,0-0.1,0-0.1c-0.3,0-0.6,0-0.8,0c0,0,0,0.1,0,0.1C18.6,5.3,18.9,5.3,19.2,5.2z M19.8,3.5
	C19.8,3.4,19.8,3.4,19.8,3.5c-0.3,0.1-0.5,0.2-0.7,0.4c0,0,0,0.1,0.1,0.1C19.4,3.8,19.6,3.6,19.8,3.5z"/>
</svg>
