<svg xmlns="http://www.w3.org/2000/svg" viewBox="0 0 112.93 24.29"><defs><style>.cls-1,.cls-4{font-size:12px;font-family:Helvetica-Light, Helvetica Light;font-weight:300;}.cls-1{letter-spacing:0.04em;}.cls-2{letter-spacing:0.02em;}.cls-3{letter-spacing:-0.03em;}.cls-4{letter-spacing:0.04em;}.cls-5{letter-spacing:0.02em;}.cls-6{fill:#2d8e35;}</style></defs><g id="Layer_2"><g id="Layer_1-2"><text class="cls-1" transform="translate(0 15.48)">Ga<tspan class="cls-2" x="16.97" y="0">r</tspan><tspan x="21.23" y="0">dener</tspan><tspan class="cls-3" x="54.97" y="0">’</tspan><tspan x="57.23" y="0">s</tspan></text><text class="cls-4" transform="translate(78.07 15.74)">G<tspan class="cls-5" x="9.81" y="0">r</tspan><tspan x="14.07" y="0">ove</tspan></text><path class="cls-6" d="M69.81,14.51a1.49,1.49,0,0,0,.2-.15,6,6,0,0,1,2.31-1.13l2.5-.62a1.37,1.37,0,0,1,.34,0c0,.12-.06.27-.15.34a8.91,8.91,0,0,1-4.61,2.1,3.41,3.41,0,0,1-.55.05c-.2,0-.29.07-.32.28-.06.52-.15,1-.22,1.57a2.18,2.18,0,0,0,0,.27l.16-.11A7.22,7.22,0,0,1,72,15.65c1.07-.41,2.11-.87,3.17-1.31a.73.73,0,0,1,.19-.07.3.3,0,0,1,.23.08.26.26,0,0,1,0,.23,1.44,1.44,0,0,1-.28.33,10.68,10.68,0,0,1-4.92,2.52c-.33.08-.66.21-1,.32-.14,0-.19.13-.19.29,0,.33,0,.66,0,1,0,.07,0,.14,0,.25l.19-.16a3.94,3.94,0,0,1,2-1.07l4.7-1.11c.16,0,.37-.14.48,0s-.08.35-.21.48a6.11,6.11,0,0,1-2.74,1.42c-1.1.25-2.2.47-3.3.71-.25,0-.49.14-.73.21s-.33.21-.27.47c.28,1.08.55,2.17.81,3.25l.18.7-.09.06c-.06-.07-.14-.12-.17-.2a15,15,0,0,1-.59-1.58c-.21-.76-.36-1.54-.52-2.32a.85.85,0,0,0-.42-.62,9,9,0,0,0-.95-.44,9.52,9.52,0,0,1-3.89-2.53,9.08,9.08,0,0,1-.57-.81c-.08-.13-.13-.3,0-.38a.43.43,0,0,1,.36.05c1.21.73,2.4,1.48,3.61,2.2a4.8,4.8,0,0,1,1.52,1.27,1.06,1.06,0,0,0,.16.17,7.42,7.42,0,0,1,0-.83c.07-.49-.07-.74-.59-.91a4.32,4.32,0,0,1-2.24-1.76,11.73,11.73,0,0,0-2.27-2.29,1.42,1.42,0,0,1-.21-.36,1.42,1.42,0,0,1,.41,0,6.65,6.65,0,0,1,3.88,2.81c.26.42.56.81.85,1.21l.15.2c0-.11,0-.17.06-.24.11-.69.2-1.38.34-2.06a.29.29,0,0,0-.21-.39A5.87,5.87,0,0,1,67,13.09a7.66,7.66,0,0,1-1.75-3.18c0-.14-.13-.33.07-.43s.29.12.37.25a18.42,18.42,0,0,0,2.58,3.07,14.55,14.55,0,0,1,1.06,1.27l.1.12c.06-.15.11-.27.15-.4.18-.53.36-1.07.55-1.59.06-.16,0-.23-.11-.31-.35-.2-.7-.41-1-.64a3.17,3.17,0,0,1-1.19-1.51c-.25-.61-.48-1.22-.7-1.84a.94.94,0,0,1,0-.37,1.17,1.17,0,0,1,.39.09A4.4,4.4,0,0,1,68.58,9l1.31,2.12c.11.16.24.31.4.51l.86-1.72s0-.06-.05-.07a3.31,3.31,0,0,1-1.6-1.81L68.59,6a.7.7,0,0,1,0-.29c.1,0,.24,0,.29.06.33.33.66.66,1,1A7.51,7.51,0,0,1,71,9c.07.19.16.39.27.63l.3-.44L72.33,8a.17.17,0,0,0,0-.26,3.38,3.38,0,0,1-.89-1.65c-.22-.8-.45-1.6-.66-2.41,0-.1,0-.22,0-.32.1.05.23.08.29.16a8,8,0,0,1,1.35,3.25c0,.25.11.49.18.79L73.84,6l-.33-.26a2.39,2.39,0,0,1-.93-1.48c-.13-.59-.31-1.17-.46-1.76a.82.82,0,0,1,0-.3c.09,0,.21.06.27.13a5.89,5.89,0,0,1,1.12,2.13c.13.43.28.86.43,1.36L75.24,4.5,75,4.31a2.72,2.72,0,0,1-1-1.55c-.13-.57-.27-1.14-.4-1.72a.77.77,0,0,1,0-.29c.11,0,.25,0,.32.07a3,3,0,0,1,.83,1.45c.17.54.36,1.06.55,1.6,0,.09.08.18.14.32l.79-.81a2.58,2.58,0,0,1-.47-1.79c0-.52,0-1,0-1.54l.06,0c.07.06.16.1.2.17a3.61,3.61,0,0,1,.49,2.08c0,.26,0,.52,0,.78l.07,0a8.35,8.35,0,0,0,.8-.89,3.25,3.25,0,0,1,1-1,3.22,3.22,0,0,0,1-.85s.15,0,.23-.06.07.18,0,.23c-.44.66-.76,1.43-1.6,1.75a2,2,0,0,0-1,.62L77,3.07l.24,0c.49,0,1-.08,1.49-.1.08,0,.23.09.23.13a.36.36,0,0,1-.14.26,2.68,2.68,0,0,1-1.47.34,1.13,1.13,0,0,1-.26,0c-.66-.19-.92.3-1.26.72H76c.88-.08,1.77-.16,2.65-.22.1,0,.2.09.3.13-.07.09-.13.22-.21.24a16.68,16.68,0,0,1-1.66.51,1.83,1.83,0,0,1-1.4-.24.2.2,0,0,0-.3.05c-.21.25-.42.49-.64.73l.06,0,2.51-.11a.39.39,0,0,1,.19,0c.07,0,.19.09.19.13a.27.27,0,0,1-.13.22,2.78,2.78,0,0,1-.78.27c-.83.1-1.65.16-2.48.21a.5.5,0,0,0-.44.23c-.21.28-.43.56-.68.87a.46.46,0,0,0,.18,0,6.42,6.42,0,0,1,2-.22c.45,0,.89,0,1.34,0a1,1,0,0,1,.32.12c-.08.1-.14.24-.24.29a4.44,4.44,0,0,1-2.18.46L73,8.05a.38.38,0,0,0-.4.18c-.27.45-.55.88-.84,1.32l.08,0a5.94,5.94,0,0,1,3.05-.79c.41,0,.82,0,1.24,0a.3.3,0,0,1,.23.13.29.29,0,0,1-.13.24c-.72.36-1.44.74-2.19,1a4.07,4.07,0,0,1-2.37.12.29.29,0,0,0-.39.18c-.16.36-.34.7-.5,1a.93.93,0,0,0,0,.21l.78-.35a10.44,10.44,0,0,1,2.76-.63c.35-.05.7-.11,1.06-.15a.76.76,0,0,1,.3.1c0,.11-.07.25-.16.31A7.54,7.54,0,0,1,73,12.08a6.36,6.36,0,0,1-2.45.26s-.13,0-.14.07c-.25.68-.48,1.37-.71,2.05Zm-.06,4.83h.13l3.63-.77a6,6,0,0,0,1.91-.77c.13-.08.25-.18.37-.27l0-.06-.26.05c-.81.18-1.61.35-2.41.55s-1.61.4-2.41.64A1.87,1.87,0,0,0,69.75,19.34Zm-1.38-2.22,0-.08c-1-1.44-2-2.89-3.78-3.45,0,0,0,0,0,.05l.12.12a10.25,10.25,0,0,1,1.5,1.65,5.73,5.73,0,0,0,1,1A8.78,8.78,0,0,0,68.37,17.12Zm-4.51-1C64.2,17,67.4,19,68.35,19a2.55,2.55,0,0,0-.89-.78L64,16.14S63.9,16.12,63.86,16.11Zm6.1,1a10.5,10.5,0,0,0,4.56-2,.14.14,0,0,0-.12,0l-3.26,1.25A3.37,3.37,0,0,0,70,17.12Zm.12-2.4A6.93,6.93,0,0,0,74,13.27,7.83,7.83,0,0,0,70.08,14.72Zm5.24-5.5c-1.11-.17-3.08.27-3.45.75A4.49,4.49,0,0,0,75.32,9.22Zm-6.5,4.69L66,11C66.33,12.11,68,13.82,68.82,13.91Zm5.72-2.79A7.74,7.74,0,0,0,71,12,7.06,7.06,0,0,0,74.54,11.12Zm-5,.07c-.73-.92-1.19-2-2-3A4.12,4.12,0,0,0,69.55,11.19Zm-.22-4.46c.23,1.1,1.07,2.5,1.58,2.65A7.82,7.82,0,0,0,69.33,6.73ZM75.12,4A6.9,6.9,0,0,0,74,1.42C74.31,2.34,74.28,3.34,75.12,4Zm-1.51,1.5a5.47,5.47,0,0,0-.9-2.13C72.83,4.16,72.84,5,73.61,5.52Zm2.1,2.1a5.92,5.92,0,0,0-2.18.08A4.24,4.24,0,0,0,75.71,7.62ZM71.5,5a4.86,4.86,0,0,0,.67,2.07A5.66,5.66,0,0,0,71.5,5Zm4.83-2.15A2.84,2.84,0,0,0,76.12,1,3.42,3.42,0,0,0,76.33,2.83ZM76.27,4.6a1.15,1.15,0,0,0,1.16,0ZM74.76,6v.11L76,6V5.84Zm3.29-2.64V3.2l-.83,0v.12Zm.68-1.78-.08-.1L78,1.91l.06.09Z"/></g></g></svg>