<?xml version="1.0" encoding="utf-8"?>
<!-- Generator: Adobe Illustrator 24.3.0, SVG Export Plug-In . SVG Version: 6.00 Build 0)  -->
<svg version="1.0" id="Layer_1" xmlns="http://www.w3.org/2000/svg" xmlns:xlink="http://www.w3.org/1999/xlink" x="0px" y="0px"
	 viewBox="0 0 172.2 37.6" style="enable-background:new 0 0 172.2 37.6;" xml:space="preserve">
<path style="display:none;fill:#2EB34A;" d="M171.5,175.6H3.5c-6.6,0-12-5.4-12-12v-168c0-6.6,5.4-12,12-12h168c6.6,0,12,5.4,12,12
	v168C183.5,170.2,178.1,175.6,171.5,175.6z"/>
<g style="display:none;">
	<path style="display:inline;fill:#FFFFFF;" d="M101.1,46.2c7.1,7.5,10.7,18.6,10.7,33.2c0,15.4-3.5,27.1-10.4,35.2
		c-7,8.1-15.9,12.1-26.9,12.1c-7,0-12.8-1.7-17.4-5.2c-2.5-1.9-5-4.7-7.4-8.4v45.6H27V36.9h21.9v12.9c2.5-3.8,5.1-6.8,7.9-9
		c5.1-3.9,11.2-5.8,18.2-5.8C85.3,34.9,94,38.7,101.1,46.2z M83.6,62.7c-3.1-5.2-8.1-7.8-15.1-7.8c-8.4,0-14.1,3.9-17.3,11.8
		c-1.6,4.2-2.4,9.5-2.4,15.9c0,10.2,2.7,17.3,8.2,21.4c3.2,2.4,7.1,3.6,11.5,3.6c6.4,0,11.3-2.5,14.7-7.4s5.1-11.5,5.1-19.7
		C88.2,73.8,86.7,67.9,83.6,62.7z"/>
	<path style="display:inline;fill:#FFFFFF;" d="M127.5,100.3h24.3v24h-24.3V100.3z"/>
</g>
<g>
	<g>
		<path d="M6,18.1v-1.1h5.5V24h-1v-2.3c-0.4,0.8-1,1.4-1.8,1.9C8,24.1,7,24.3,5.7,24.3c-1.7,0-3-0.6-4.1-1.8c-1.1-1.2-1.6-3-1.6-5.3
			c0-2,0.5-3.7,1.5-5c1-1.3,2.5-2,4.5-2c1.4,0,2.6,0.3,3.6,1c1,0.7,1.6,1.8,1.9,3.2h-1.3c-0.2-1-0.7-1.8-1.5-2.3
			c-0.7-0.6-1.6-0.8-2.6-0.8c-1.7,0-2.9,0.6-3.7,1.8c-0.8,1.2-1.2,2.7-1.2,4.6c0,1.5,0.4,2.8,1.2,3.9c0.8,1.1,2,1.6,3.5,1.7
			c0.7,0,1.5-0.2,2.2-0.5c0.7-0.4,1.3-1,1.7-1.8c0.4-0.8,0.6-1.8,0.6-2.8H6z"/>
		<path d="M19.9,18.4c0.2,0,0.5-0.1,0.7-0.1c0.3-0.1,0.5-0.1,0.7-0.2c0.2-0.1,0.3-0.3,0.3-0.4c0-0.2,0.1-0.4,0.1-0.6
			c0-0.6-0.2-1.1-0.5-1.4c-0.4-0.4-1-0.5-1.8-0.5c-0.7,0-1.4,0.1-1.8,0.4c-0.5,0.3-0.8,0.9-0.9,1.7h-1.1c0.1-1.1,0.5-2,1.2-2.5
			c0.7-0.5,1.6-0.7,2.6-0.7c1,0,1.8,0.2,2.4,0.6c0.6,0.5,1,1.2,1,2.3v5.2c0,0.4,0.1,0.7,0.2,0.8c0.2,0.1,0.5,0.1,0.9-0.1V24
			c-0.1,0-0.2,0.1-0.3,0.1c-0.2,0.1-0.3,0.1-0.5,0.1c-0.2,0-0.3,0-0.5-0.1c-0.3-0.1-0.6-0.2-0.7-0.5c-0.1-0.3-0.2-0.6-0.2-0.9
			c-0.9,1-2.1,1.6-3.5,1.6c-0.8,0-1.6-0.2-2.2-0.7c-0.6-0.4-0.9-1.1-1-2.1c0-1.6,1.1-2.6,3.3-2.9L19.9,18.4z M21.7,18.9
			c-0.5,0.2-0.9,0.3-1.4,0.4c-0.5,0.1-0.9,0.1-1.4,0.2c-1.7,0.1-2.6,0.8-2.6,2.1c0,0.6,0.2,1,0.6,1.3c0.4,0.3,0.9,0.4,1.4,0.4
			c0.9,0,1.7-0.2,2.4-0.7c0.7-0.4,1-1.1,1-2.1V18.9z"/>
		<path d="M27.8,24h-1.1v-9.6h1.1v1.8h0c0.3-0.8,0.7-1.3,1.2-1.6c0.5-0.3,1.1-0.4,1.9-0.4v1.2c-1.2,0-2,0.4-2.5,1.1
			c-0.4,0.8-0.6,1.7-0.6,2.8V24z"/>
		<path d="M40.5,10.6h1.1V24h-1.1v-1.7h0c-0.3,0.6-0.8,1.1-1.4,1.4c-0.6,0.3-1.2,0.5-1.9,0.5c-1.5,0-2.6-0.5-3.2-1.5
			c-0.7-0.9-1-2.1-1-3.6c0-1.4,0.3-2.6,1-3.6c0.7-1,1.7-1.5,3.1-1.5c0.7,0,1.3,0.1,1.9,0.4c0.6,0.3,1.1,0.8,1.4,1.4V10.6z
			 M40.5,19.1c0-1.1-0.3-2.1-0.8-2.9c-0.6-0.8-1.3-1.2-2.3-1.2c-1.1,0-1.9,0.4-2.5,1.3c-0.5,0.8-0.8,1.9-0.7,3.1
			c0,1.2,0.3,2.1,0.9,2.8c0.6,0.7,1.3,1,2.3,1c1,0,1.8-0.4,2.4-1.2C40.2,21.3,40.5,20.3,40.5,19.1z"/>
		<path d="M46,19.4c0,1.1,0.3,2,0.8,2.7c0.5,0.7,1.3,1.1,2.4,1.1c1.5,0,2.4-0.8,2.8-2.2h1.2c-0.3,0.9-0.7,1.7-1.3,2.3
			c-0.6,0.6-1.5,0.9-2.7,0.9c-1.5,0-2.6-0.5-3.3-1.5c-0.7-0.9-1-2.1-1-3.6c0-1.5,0.4-2.7,1.2-3.6c0.7-1,1.8-1.5,3.1-1.5
			c2.6,0,4,1.8,4.1,5.3H46z M52.1,18.5c0-1-0.2-1.8-0.7-2.4c-0.5-0.6-1.2-1-2.2-1c-1,0-1.7,0.3-2.2,1c-0.5,0.7-0.8,1.5-0.9,2.4H52.1
			z"/>
		<path d="M57.5,24h-1.1v-9.6h1.1v1.3c0.4-0.5,0.9-0.9,1.4-1.2c0.5-0.3,1-0.4,1.7-0.4c1.2,0,2.1,0.4,2.9,1.4c0.2,0.3,0.4,0.7,0.4,1
			c0,0.4,0.1,0.8,0.1,1.2V24h-1.1v-6.3c0-1.7-0.8-2.6-2.4-2.6c-0.7,0-1.2,0.2-1.7,0.6C58.3,16,58,16.5,57.8,17
			c-0.2,0.6-0.2,1.2-0.2,1.8V24z"/>
		<path d="M68.2,19.4c0,1.1,0.3,2,0.8,2.7c0.5,0.7,1.3,1.1,2.4,1.1c1.5,0,2.4-0.8,2.8-2.2h1.2c-0.3,0.9-0.7,1.7-1.3,2.3
			c-0.6,0.6-1.5,0.9-2.7,0.9c-1.5,0-2.6-0.5-3.3-1.5c-0.7-0.9-1-2.1-1-3.6c0-1.5,0.4-2.7,1.2-3.6c0.7-1,1.8-1.5,3.1-1.5
			c2.6,0,4,1.8,4.1,5.3H68.2z M74.3,18.5c0-1-0.2-1.8-0.7-2.4c-0.5-0.6-1.2-1-2.2-1c-1,0-1.7,0.3-2.2,1c-0.5,0.7-0.8,1.5-0.9,2.4
			H74.3z"/>
		<path d="M79.8,24h-1.1v-9.6h1.1v1.8h0c0.3-0.8,0.7-1.3,1.2-1.6c0.5-0.3,1.1-0.4,1.9-0.4v1.2c-1.2,0-2,0.4-2.5,1.1
			c-0.4,0.8-0.6,1.7-0.6,2.8V24z"/>
		<path d="M87,12.8c0,0.5-0.1,1-0.4,1.3c-0.2,0.3-0.6,0.6-0.9,0.7v-0.7c0.2-0.1,0.3-0.2,0.4-0.4c0.1-0.2,0.2-0.5,0.2-0.8v-0.6h-0.6
			v-1.6H87V12.8z"/>
		<path d="M89.7,21c0.3,1.6,1.2,2.3,2.8,2.3c0.8,0,1.4-0.2,1.7-0.6c0.4-0.3,0.6-0.8,0.6-1.2c0-0.3-0.1-0.6-0.2-0.9
			c-0.2-0.2-0.4-0.4-0.7-0.5c-0.1-0.1-0.3-0.1-0.4-0.2c-0.2-0.1-0.3-0.1-0.5-0.1c-0.4-0.1-0.7-0.1-1.1-0.2c-0.2-0.1-0.4-0.1-0.5-0.2
			c-0.2,0-0.4-0.1-0.5-0.1c-0.4-0.1-0.7-0.3-1-0.4c-0.3-0.2-0.5-0.5-0.7-0.8c-0.2-0.3-0.3-0.7-0.3-1.2c0-0.8,0.3-1.5,0.9-2
			c0.6-0.5,1.4-0.8,2.4-0.8c2.1,0,3.3,1,3.6,3h-1.1c-0.1-0.7-0.4-1.3-0.8-1.6c-0.5-0.3-1-0.4-1.7-0.4c-1.4,0-2.1,0.6-2.1,1.7
			c0,0.3,0.1,0.6,0.3,0.8c0.2,0.2,0.4,0.4,0.7,0.5c0.6,0.3,1.3,0.5,2,0.6c0.4,0.1,0.8,0.2,1.1,0.3c0.4,0.1,0.7,0.3,1,0.5
			c0.3,0.2,0.5,0.5,0.7,0.8c0.2,0.3,0.2,0.7,0.2,1.2c0,0.9-0.4,1.6-1.1,2.1c-0.7,0.5-1.6,0.7-2.7,0.7c-1.1,0-2-0.3-2.6-1
			c-0.6-0.6-0.9-1.4-1-2.3H89.7z"/>
	</g>
</g>
<g>
	<g>
		<path d="M127,18.5v-1.1h5.5v6.9h-1v-2.3c-0.4,0.8-1,1.4-1.8,1.9c-0.8,0.5-1.8,0.7-3.1,0.7c-1.7,0-3-0.6-4.1-1.8
			c-1.1-1.2-1.6-3-1.6-5.3c0-2,0.5-3.7,1.5-5c1-1.3,2.5-2,4.5-2c1.4,0,2.6,0.3,3.6,1c1,0.7,1.6,1.8,1.9,3.2h-1.3
			c-0.2-1-0.7-1.8-1.5-2.3c-0.7-0.6-1.6-0.8-2.6-0.8c-1.7,0-2.9,0.6-3.7,1.8c-0.8,1.2-1.2,2.7-1.2,4.6c0,1.5,0.4,2.8,1.2,3.9
			c0.8,1.1,2,1.6,3.5,1.7c0.7,0,1.5-0.2,2.2-0.5c0.7-0.4,1.3-1,1.7-1.8c0.4-0.8,0.6-1.8,0.6-2.8H127z"/>
		<path d="M137.7,24.4h-1.1v-9.6h1.1v1.8h0c0.3-0.8,0.7-1.3,1.2-1.6c0.5-0.3,1.1-0.4,1.9-0.4v1.2c-1.2,0-2,0.4-2.5,1.1
			c-0.4,0.8-0.6,1.7-0.6,2.8V24.4z"/>
		<path d="M146.9,24.7c-1.2,0-2.2-0.4-3-1.3c-0.8-0.8-1.3-2.1-1.3-3.8c0-1.5,0.4-2.7,1.1-3.6c0.7-1,1.8-1.4,3.2-1.5
			c1.5,0,2.5,0.5,3.3,1.5c0.7,1,1.1,2.2,1.1,3.6c0,1.5-0.4,2.8-1.2,3.7C149.3,24.2,148.2,24.6,146.9,24.7z M150.1,19.6
			c0-1.2-0.2-2.1-0.7-2.9s-1.3-1.2-2.5-1.2c-1.1,0-1.9,0.4-2.4,1.2c-0.5,0.8-0.7,1.8-0.7,2.8c0,1.2,0.3,2.2,0.8,2.9
			c0.5,0.8,1.3,1.1,2.3,1.2c1.1,0,2-0.4,2.5-1.3C149.8,21.6,150.1,20.6,150.1,19.6z"/>
		<path d="M153.3,14.8h1.2l3,8.3l3-8.3h1.2l-3.6,9.6h-1.2L153.3,14.8z"/>
		<path d="M165,19.8c0,1.1,0.3,2,0.8,2.7c0.5,0.7,1.3,1.1,2.4,1.1c1.5,0,2.4-0.8,2.8-2.2h1.2c-0.3,0.9-0.7,1.7-1.3,2.3
			c-0.6,0.6-1.5,0.9-2.7,0.9c-1.5,0-2.6-0.5-3.3-1.5c-0.7-0.9-1-2.1-1-3.6c0-1.5,0.4-2.7,1.2-3.6c0.7-1,1.8-1.5,3.1-1.5
			c2.6,0,4,1.8,4.1,5.3H165z M171.1,18.9c0-1-0.2-1.8-0.7-2.4c-0.5-0.6-1.2-1-2.2-1c-1,0-1.7,0.3-2.2,1c-0.5,0.7-0.8,1.5-0.9,2.4
			H171.1z"/>
	</g>
</g>
<path style="fill:#2D8E35;" d="M107.3,22.5c0.1-0.1,0.2-0.1,0.3-0.2c1.1-0.9,2.3-1.4,3.6-1.8c1.3-0.3,2.6-0.7,3.9-1
	c0.2,0,0.4,0,0.5,0.1c-0.1,0.2-0.1,0.4-0.2,0.5c-2.1,1.8-4.4,2.9-7.2,3.2c-0.3,0-0.6,0.1-0.8,0.1c-0.3,0-0.5,0.1-0.5,0.4
	c-0.1,0.8-0.2,1.6-0.3,2.4c0,0.1,0,0.2,0,0.4c0.1-0.1,0.2-0.1,0.2-0.2c1.1-1.1,2.5-1.8,4-2.3c1.7-0.6,3.3-1.3,4.9-2
	c0.1,0,0.2-0.1,0.3-0.1c0.1,0,0.3,0,0.3,0.1c0.1,0.1,0.1,0.3,0,0.4c-0.1,0.2-0.3,0.4-0.4,0.5c-2.2,2-4.7,3.3-7.6,3.9
	c-0.5,0.1-1,0.3-1.5,0.5c-0.2,0.1-0.3,0.2-0.3,0.4c0,0.5,0,1,0,1.5c0,0.1,0,0.2,0,0.4c0.1-0.1,0.2-0.2,0.3-0.2
	c0.8-0.9,1.9-1.4,3.1-1.7c2.4-0.6,4.9-1.2,7.3-1.7c0.2-0.1,0.6-0.2,0.7,0.1c0.2,0.3-0.1,0.5-0.3,0.7c-1.2,1.1-2.7,1.8-4.2,2.2
	c-1.7,0.4-3.4,0.7-5.1,1.1c-0.4,0.1-0.8,0.2-1.1,0.3c-0.4,0.1-0.5,0.3-0.4,0.7c0.4,1.7,0.8,3.4,1.3,5c0.1,0.4,0.2,0.7,0.3,1.1
	c0,0-0.1,0.1-0.1,0.1c-0.1-0.1-0.2-0.2-0.3-0.3c-0.3-0.8-0.7-1.6-0.9-2.4c-0.3-1.2-0.6-2.4-0.8-3.6c-0.1-0.4-0.3-0.8-0.7-1
	c-0.5-0.2-1-0.5-1.5-0.7c-2.3-0.9-4.4-2-6-3.9c-0.3-0.4-0.6-0.8-0.9-1.3c-0.1-0.2-0.2-0.5,0-0.6c0.1-0.1,0.4,0,0.6,0.1
	c1.9,1.1,3.7,2.3,5.6,3.4c0.9,0.5,1.7,1.1,2.4,2c0,0.1,0.1,0.1,0.2,0.3c0-0.5,0-0.9,0-1.3c0.1-0.8-0.1-1.1-0.9-1.4
	c-1.5-0.5-2.6-1.4-3.5-2.7c-1-1.4-2.2-2.5-3.5-3.6c-0.2-0.1-0.2-0.4-0.3-0.6c0.2,0,0.5-0.1,0.6,0c2.5,0.8,4.6,2.1,6,4.4
	c0.4,0.6,0.9,1.3,1.3,1.9c0.1,0.1,0.1,0.2,0.2,0.3c0-0.2,0.1-0.3,0.1-0.4c0.2-1.1,0.3-2.1,0.5-3.2c0.1-0.3,0-0.5-0.3-0.6
	c-1.2-0.5-2.3-1.2-3.2-2.1c-1.3-1.4-2.2-3.1-2.7-4.9c-0.1-0.2-0.2-0.5,0.1-0.7c0.3-0.2,0.4,0.2,0.6,0.4c1.1,1.8,2.5,3.3,4,4.8
	c0.6,0.6,1.1,1.3,1.6,2c0,0,0.1,0.1,0.2,0.2c0.1-0.2,0.2-0.4,0.2-0.6c0.3-0.8,0.6-1.7,0.9-2.5c0.1-0.2,0-0.3-0.2-0.5
	c-0.5-0.3-1.1-0.6-1.6-1c-0.9-0.6-1.5-1.4-1.8-2.3c-0.4-0.9-0.7-1.9-1.1-2.9c-0.1-0.2,0-0.4,0-0.6c0.2,0,0.4,0,0.6,0.1
	c0.8,0.6,1.2,1.4,1.7,2.2c0.7,1.1,1.4,2.2,2,3.3c0.2,0.3,0.4,0.5,0.6,0.8c0.5-0.9,0.9-1.8,1.3-2.7c0,0,0-0.1-0.1-0.1
	c-1.2-0.6-1.9-1.6-2.5-2.8c-0.5-1.1-1-2.1-1.4-3.2c-0.1-0.1,0-0.3,0-0.4c0.2,0,0.4,0,0.5,0.1c0.5,0.5,1,1,1.5,1.6
	c0.8,1,1.4,2.1,1.9,3.4c0.1,0.3,0.3,0.6,0.4,1c0.2-0.3,0.3-0.5,0.5-0.7c0.4-0.6,0.7-1.2,1.1-1.8c0.1-0.2,0.1-0.3,0-0.4
	c-0.8-0.7-1.1-1.6-1.4-2.6c-0.3-1.2-0.7-2.5-1-3.7c0-0.2,0-0.3,0.1-0.5c0.2,0.1,0.4,0.1,0.5,0.3c1.1,1.5,1.8,3.2,2.1,5
	c0.1,0.4,0.2,0.8,0.3,1.2c0.7-0.8,1.3-1.6,1.9-2.4c-0.2-0.1-0.3-0.3-0.5-0.4c-0.8-0.6-1.2-1.3-1.4-2.3c-0.2-0.9-0.5-1.8-0.7-2.7
	c0-0.1,0-0.3,0.1-0.5c0.1,0.1,0.3,0.1,0.4,0.2c0.8,1,1.4,2.1,1.7,3.3c0.2,0.7,0.4,1.3,0.7,2.1c0.7-0.7,1.3-1.4,1.9-2.1
	c-0.1-0.1-0.2-0.2-0.3-0.3c-0.8-0.6-1.3-1.4-1.5-2.4c-0.2-0.9-0.4-1.8-0.6-2.7c0-0.1,0-0.3,0.1-0.5c0.2,0,0.4,0,0.5,0.1
	c0.7,0.6,1,1.4,1.3,2.2c0.3,0.8,0.6,1.7,0.8,2.5c0.1,0.1,0.1,0.3,0.2,0.5c0.4-0.4,0.8-0.8,1.2-1.3c-0.7-0.8-0.7-1.8-0.7-2.8
	c0-0.8,0-1.6,0-2.4c0,0,0.1,0,0.1-0.1c0.1,0.1,0.2,0.2,0.3,0.3c0.5,1,0.9,2.1,0.8,3.2c0,0.4,0,0.8-0.1,1.2c0,0,0.1,0,0.1,0.1
	c0.4-0.5,0.9-0.9,1.2-1.4c0.4-0.6,0.9-1.1,1.5-1.5c0.6-0.4,1.2-0.7,1.6-1.3c0.1-0.1,0.2-0.1,0.3-0.1c0,0.1,0.1,0.3,0.1,0.4
	c-0.7,1-1.2,2.2-2.5,2.7c-0.6,0.2-1.2,0.4-1.5,1c0,0.1-0.1,0.1-0.1,0.2c0.2,0,0.3,0,0.4-0.1c0.8-0.1,1.5-0.1,2.3-0.2
	c0.1,0,0.4,0.1,0.4,0.2c0,0.1-0.1,0.3-0.2,0.4c-0.7,0.4-1.5,0.6-2.3,0.5c-0.1,0-0.3,0-0.4,0c-1-0.3-1.4,0.5-2,1.1c0.1,0,0.2,0,0.3,0
	c1.4-0.1,2.7-0.2,4.1-0.3c0.1,0,0.3,0.1,0.5,0.2c-0.1,0.1-0.2,0.3-0.3,0.4c-0.8,0.3-1.7,0.6-2.6,0.8c-0.7,0.2-1.5,0.1-2.2-0.4
	c-0.2-0.1-0.3-0.1-0.5,0.1c-0.3,0.4-0.7,0.8-1,1.1c0.1,0,0.1,0.1,0.1,0.1c1.3-0.1,2.6-0.1,3.9-0.2c0.1,0,0.2,0,0.3,0
	c0.1,0,0.3,0.1,0.3,0.2c0,0.1-0.1,0.3-0.2,0.3c-0.4,0.2-0.8,0.4-1.2,0.4c-1.3,0.1-2.6,0.2-3.8,0.3c-0.3,0-0.5,0.1-0.7,0.3
	c-0.3,0.4-0.7,0.9-1.1,1.4c0.1,0,0.2,0,0.3,0c1-0.3,2-0.4,3-0.3c0.7,0,1.4,0,2.1,0c0.2,0,0.3,0.1,0.5,0.2c-0.1,0.1-0.2,0.4-0.4,0.4
	c-1.1,0.5-2.2,0.8-3.4,0.7c-0.8,0-1.5-0.1-2.3-0.1c-0.3,0-0.5,0-0.6,0.3c-0.4,0.7-0.9,1.4-1.3,2c0.1,0,0.1,0.1,0.1,0.1
	c1.5-0.9,3-1.2,4.7-1.2c0.6,0,1.3-0.1,1.9-0.1c0.1,0,0.3,0.1,0.4,0.2c0,0.1-0.1,0.3-0.2,0.4c-1.1,0.6-2.2,1.1-3.4,1.6
	c-1.2,0.5-2.4,0.4-3.7,0.2c-0.3-0.1-0.5,0-0.6,0.3c-0.3,0.5-0.5,1.1-0.8,1.6c0,0.1,0,0.2-0.1,0.3c0.4-0.2,0.8-0.4,1.2-0.6
	c1.4-0.6,2.8-0.8,4.3-1c0.5-0.1,1.1-0.2,1.6-0.2c0.2,0,0.3,0.1,0.5,0.2c-0.1,0.2-0.1,0.4-0.2,0.5c-1.2,0.8-2.5,1.3-3.8,1.7
	c-1.2,0.3-2.5,0.6-3.8,0.4c-0.1,0-0.2,0.1-0.2,0.1c-0.4,1.1-0.7,2.1-1.1,3.2C107.2,22.4,107.2,22.5,107.3,22.5z M107.2,30
	c0.1,0,0.2,0,0.2,0c1.9-0.4,3.7-0.8,5.6-1.2c1.1-0.2,2-0.6,3-1.2c0.2-0.1,0.4-0.3,0.6-0.4c0,0,0-0.1,0-0.1c-0.1,0-0.3,0-0.4,0.1
	c-1.2,0.3-2.5,0.5-3.7,0.8c-1.3,0.3-2.5,0.6-3.7,1C108.1,29.1,107.6,29.5,107.2,30z M105,26.5c0,0,0.1-0.1,0.1-0.1
	c-1.5-2.2-3.1-4.5-5.9-5.4c0,0,0,0.1,0,0.1c0.1,0.1,0.1,0.1,0.2,0.2c0.9,0.8,1.6,1.6,2.3,2.6c0.4,0.6,1,1.1,1.6,1.6
	C103.8,25.9,104.5,26.2,105,26.5z M98,25c0.5,1.4,5.5,4.5,7,4.4c-0.3-0.5-0.8-0.9-1.4-1.2c-1.8-1.1-3.6-2.1-5.4-3.2
	C98.1,25,98.1,25,98,25z M107.5,26.5c2.6-0.5,5-1.4,7.1-3.1c-0.1,0-0.1,0-0.2,0c-1.7,0.6-3.4,1.3-5.1,1.9
	C108.6,25.6,108,26,107.5,26.5z M107.7,22.8c2.2-0.2,4.3-0.8,6-2.2C111.6,20.9,109.4,21.4,107.7,22.8z M115.8,14.3
	c-1.7-0.3-4.8,0.4-5.3,1.2C112.4,15.9,114.2,15.3,115.8,14.3z M105.7,21.6c-1.5-1.5-2.9-3-4.3-4.5C101.9,18.8,104.4,21.4,105.7,21.6
	z M114.6,17.2c-1.3-0.1-4.8,0.7-5.4,1.3C111.1,18.6,112.9,18.1,114.6,17.2z M106.9,17.3c-1.1-1.4-1.9-3.1-3-4.6
	C103.8,14.3,105.7,17,106.9,17.3z M106.5,10.4c0.4,1.7,1.7,3.9,2.4,4.1C108.3,13,107.7,11.6,106.5,10.4z M115.5,6.2
	c-0.1-1.1-1.2-3.7-1.7-4C114.2,3.6,114.2,5.2,115.5,6.2z M113.1,8.6c-0.2-1.2-1-3-1.4-3.3C111.9,6.4,112,7.7,113.1,8.6z M116.4,11.8
	c-1.1-0.1-2.3-0.2-3.4,0.1C114.2,12.2,115.3,12.2,116.4,11.8z M109.9,7.7c0.2,1.1,0.4,2.3,1,3.2C110.7,9.8,110.5,8.7,109.9,7.7z
	 M117.4,4.4c0.2-1.1,0-2.5-0.3-2.9C116.9,2.5,116.9,3.5,117.4,4.4z M117.3,7.1c0.4,0.3,1.4,0.3,1.8-0.1
	C118.4,7.1,117.8,7.1,117.3,7.1z M114.9,9.2c0,0.1,0,0.1,0,0.2c0.7,0,1.3-0.1,2-0.1c0-0.1,0-0.1,0-0.2
	C116.2,9.1,115.6,9.2,114.9,9.2z M120,5.1c0-0.1,0-0.1,0-0.2c-0.4,0-0.9,0-1.3,0.1c0,0.1,0,0.1,0,0.2C119.2,5.2,119.6,5.2,120,5.1z
	 M121.1,2.4c0-0.1-0.1-0.1-0.1-0.2c-0.3,0.2-0.6,0.5-1,0.7c0,0,0.1,0.1,0.1,0.1C120.4,2.9,120.8,2.6,121.1,2.4z"/>
</svg>
